<svg width="161" height="161" viewBox="0 0 161 161" fill="none" xmlns="http://www.w3.org/2000/svg">
<path d="M21.6287 128.518L52.4132 160L94.6228 148.234M21.6287 128.518L32.4192 86.224M21.6287 128.518L63.521 117.706M32.4192 86.224L74.9461 74.458M32.4192 86.224L0.999995 54.742M74.9461 74.458L63.521 117.706M74.9461 74.458L106.365 105.94M74.9461 74.458L86.3712 31.846M74.9461 74.458L43.5269 43.93M74.9461 74.458L117.79 63.328M63.521 117.706L94.6228 148.234M94.6228 148.234L106.365 105.94M106.365 105.94L148.575 94.492M86.3712 31.846L55.2695 1M86.3712 31.846L128.898 20.716M55.2695 1L43.5269 43.93M55.2695 1L13.0599 12.448L0.999995 54.742M43.5269 43.93L0.999995 54.742M128.898 20.716L117.79 63.328M128.898 20.716L160 52.198L148.575 94.492M117.79 63.328L148.575 94.492" stroke="#FDDD0A" stroke-width="1.5" stroke-linecap="round" stroke-linejoin="round"/>
</svg>
