<svg width="30" height="31" viewBox="0 0 30 31" fill="none" xmlns="http://www.w3.org/2000/svg">
<path fill-rule="evenodd" clip-rule="evenodd" d="M29 1.4043H1V29.4043H29V1.4043ZM30 0.404297V30.4043H0V0.404297H30Z" fill="#FDDD0A"/>
<path d="M20.1527 23.8419C20.757 24.8286 21.5432 25.5538 22.9337 25.5538C24.1018 25.5538 24.848 24.97 24.848 24.1633C24.848 23.1967 24.0813 22.8543 22.7956 22.2919L22.0908 21.9895C20.0565 21.1229 18.7051 20.0372 18.7051 17.7419C18.7051 15.6276 20.3161 14.0181 22.8337 14.0181C24.6261 14.0181 25.9146 14.6419 26.8432 16.2753L24.648 17.6848C24.1646 16.8181 23.6432 16.4767 22.8337 16.4767C22.008 16.4767 21.4846 17.0005 21.4846 17.6848C21.4846 18.5305 22.0084 18.8729 23.218 19.3967L23.9227 19.6986C26.318 20.7257 27.6703 21.7729 27.6703 24.1272C27.6703 26.6653 25.6765 28.0557 22.9989 28.0557C20.3808 28.0557 18.6894 26.8081 17.8618 25.1729L20.1527 23.8419ZM10.1942 24.0862C10.637 24.8719 11.0399 25.5362 12.0084 25.5362C12.9346 25.5362 13.5189 25.1738 13.5189 23.7648V14.1791H16.338V23.8029C16.338 26.7219 14.6265 28.0505 12.1284 28.0505C9.8713 28.0505 8.56416 26.8824 7.89939 25.4755L10.1942 24.0862Z" fill="#FDDD0A"/>
</svg>
