<svg width="353" height="679" viewBox="0 0 353 679" fill="none" xmlns="http://www.w3.org/2000/svg">
<path d="M340.821 288.916L340.358 289.926C308.004 360.435 291.005 397.481 282.266 431.488C273.479 465.676 273.042 496.783 273.687 555.671C274.008 584.987 263.84 608.494 246.683 626.752C229.517 645.02 205.334 658.053 177.606 666.362C122.143 682.981 52.6227 680.659 -2.867 663.661C-9.97125 661.485 -16.9792 659.353 -23.8878 657.251C-106.782 632.025 -175.363 611.156 -224.218 571.641C-277.083 528.883 -306.899 464.236 -306.496 348.329C-306.295 290.387 -295.75 249.039 -277.605 217.769C-259.462 186.501 -233.693 165.261 -202.956 147.579C-179.946 134.343 -154.182 123.115 -126.76 111.164C-117.528 107.141 -108.109 103.036 -98.544 98.7452C-60.5811 81.7151 -20.3633 61.7721 19.3801 32.4263C98.5106 -26.0021 195.121 2.53 263.897 63.5879C298.275 94.1079 325.651 132.723 340.356 172.574C355.062 212.427 357.083 253.477 340.821 288.916Z" stroke="#212121"/>
<path d="M327.499 291.007L327.054 291.978C296.055 359.534 279.766 395.031 271.392 427.617C262.972 460.378 262.554 490.187 263.171 546.61C263.479 574.694 253.739 597.213 237.303 614.703C220.859 632.203 197.691 644.689 171.125 652.649C117.988 668.571 51.3799 666.347 -1.78473 650.062C-8.59137 647.977 -15.3057 645.934 -21.9247 643.92C-101.353 619.749 -167.06 599.754 -213.868 561.896C-264.514 520.932 -293.081 458.997 -292.695 347.943C-292.502 292.427 -282.399 252.813 -265.016 222.855C-247.635 192.9 -222.947 172.552 -193.498 155.61C-171.452 142.928 -146.768 132.171 -120.492 120.72C-111.647 116.865 -102.622 112.932 -93.4563 108.82C-57.0811 92.5026 -18.5445 73.3932 19.5379 45.274C95.3463 -10.7015 187.904 16.6306 253.798 75.1306C286.735 104.372 312.964 141.368 327.053 179.549C341.141 217.73 343.077 257.057 327.499 291.007Z" stroke="#212121"/>
<path d="M315.128 292.948L314.7 293.88C284.958 358.696 269.33 392.756 261.294 424.023C253.216 455.459 252.814 484.061 253.406 538.196C253.701 565.136 244.358 586.737 228.593 603.514C212.818 620.301 190.593 632.279 165.107 639.916C114.128 655.191 50.2253 653.057 -0.780273 637.434C-7.31049 635.433 -13.7521 633.473 -20.1024 631.541C-96.3113 608.35 -159.35 589.167 -204.257 552.846C-252.844 513.548 -280.251 454.131 -279.881 347.584C-279.696 294.322 -270.003 256.318 -253.327 227.579C-236.653 198.842 -212.969 179.321 -184.716 163.067C-163.565 150.9 -139.883 140.579 -114.673 129.593C-106.187 125.895 -97.5269 122.121 -88.7324 118.176C-53.8317 102.519 -16.8561 84.184 19.6839 57.2036C92.4075 3.50596 181.201 29.7237 244.42 85.8486C276.019 113.902 301.183 149.395 314.699 186.025C328.215 222.654 330.071 260.381 315.128 292.948Z" stroke="#212121"/>
<path d="M300.619 295.225L300.211 296.114C271.945 357.714 257.09 390.087 249.452 419.807C241.773 449.688 241.392 476.875 241.954 528.327C242.235 553.925 233.357 574.449 218.378 590.39C203.389 606.341 182.27 617.724 158.049 624.981C109.603 639.498 48.8724 637.47 0.399139 622.622C-5.80695 620.721 -11.9288 618.858 -17.9638 617.021C-90.3972 594.98 -150.307 576.749 -192.984 542.231C-239.154 504.887 -265.202 448.424 -264.85 347.163C-264.674 296.543 -255.462 260.428 -239.615 233.118C-223.77 205.811 -201.265 187.26 -174.414 171.814C-154.313 160.25 -131.807 150.442 -107.847 140C-99.7809 136.485 -91.5499 132.898 -83.1906 129.148C-50.0192 114.267 -14.8745 96.8402 19.8564 71.1956C88.9619 20.1694 173.341 45.0801 233.422 98.4192C263.452 125.08 287.366 158.811 300.21 193.62C313.055 228.43 314.818 264.28 300.619 295.225Z" stroke="#212121"/>
<path d="M286.397 297.457L286.008 298.305C259.189 356.753 245.092 387.473 237.845 415.675C230.557 444.032 230.195 469.834 230.729 518.654C230.995 542.938 222.574 562.406 208.364 577.527C194.146 592.659 174.111 603.458 151.131 610.343C105.167 624.116 47.5458 622.193 1.55453 608.105C-4.33406 606.301 -10.1427 604.533 -15.8688 602.791C-84.6012 581.875 -141.443 564.578 -181.935 531.828C-225.737 496.4 -250.452 442.831 -250.118 346.751C-249.951 298.722 -241.21 264.458 -226.177 238.548C-211.145 212.642 -189.793 195.042 -164.318 180.387C-145.245 169.415 -123.891 160.109 -101.157 150.202C-93.5025 146.866 -85.692 143.462 -77.7594 139.904C-46.283 125.783 -12.9328 109.246 20.0249 84.9108C85.584 36.5032 165.636 60.1328 222.641 110.741C251.134 136.037 273.823 168.04 286.009 201.065C298.195 234.092 299.867 268.101 286.397 297.457Z" stroke="#212121"/>
<path d="M271.012 299.871L270.644 300.674C245.389 355.711 232.113 384.643 225.287 411.204C218.423 437.913 218.083 462.214 218.586 508.189C218.836 531.05 210.908 549.376 197.532 563.611C184.147 577.855 165.284 588.023 143.648 594.506C100.368 607.474 46.1112 605.663 2.80527 592.398C-2.7395 590.7 -8.20895 589.035 -13.6007 587.395C-78.3295 567.697 -131.853 551.409 -169.98 520.572C-211.221 487.216 -234.493 436.78 -234.178 346.304C-234.021 301.078 -225.791 268.816 -211.637 244.423C-197.484 220.032 -177.382 203.461 -153.394 189.662C-135.434 179.33 -115.327 170.568 -93.9179 161.238C-86.7096 158.096 -79.3537 154.891 -71.8827 151.539C-42.2401 138.241 -10.8314 122.667 20.2079 99.7481C81.9304 54.1735 157.301 76.4172 210.979 124.072C237.808 147.89 259.171 178.024 270.645 209.12C282.12 240.216 283.693 272.235 271.012 299.871Z" stroke="#212121"/>
<path d="M254.985 302.387L254.639 303.14C231.014 354.627 218.593 381.696 212.206 406.548C205.783 431.54 205.465 454.279 205.936 497.29C206.17 518.668 198.757 535.805 186.248 549.116C173.73 562.437 156.09 571.947 135.851 578.011C95.3686 590.141 44.616 588.447 4.10701 576.039C-1.07974 574.45 -6.19598 572.893 -11.2395 571.359C-71.798 552.93 -121.865 537.694 -157.529 508.849C-196.101 477.651 -217.871 430.477 -217.577 345.84C-217.43 303.533 -209.731 273.357 -196.493 250.542C-183.256 227.731 -164.455 212.231 -142.016 199.323C-125.216 189.659 -106.407 181.462 -86.3789 172.734C-79.635 169.795 -72.7528 166.795 -65.7625 163.659C-38.03 151.219 -8.64365 136.647 20.3976 115.204C78.1236 72.5799 148.618 93.38 198.83 137.957C223.926 160.237 243.909 188.424 254.641 217.51C265.374 246.596 266.844 276.542 254.985 302.387Z" stroke="#212121"/>
<path d="M238.628 304.954L238.304 305.66C216.342 353.521 204.794 378.689 198.855 401.795C192.883 425.035 192.587 446.179 193.025 486.164C193.242 506.03 186.354 521.953 174.731 534.321C163.099 546.699 146.705 555.538 127.894 561.174C90.2662 572.449 43.0902 570.875 5.43608 559.341C0.614777 557.864 -4.14095 556.417 -8.82898 554.99C-65.1311 537.857 -111.67 523.695 -144.82 496.883C-180.668 467.888 -200.906 424.044 -200.632 345.366C-200.495 306.039 -193.338 277.991 -181.035 256.788C-168.734 235.588 -151.26 221.183 -130.403 209.184C-114.786 200.2 -97.3029 192.581 -78.6837 184.467C-72.4138 181.734 -66.015 178.946 -59.5154 176.03C-33.7325 164.464 -6.41022 150.916 20.5915 130.979C74.2386 91.3666 139.756 110.693 186.431 152.13C209.758 172.839 228.331 199.039 238.307 226.073C248.283 253.108 249.647 280.938 238.628 304.954Z" stroke="#212121"/>
<path d="M222.01 307.561L221.708 308.218C201.437 352.396 190.775 375.632 185.292 396.966C179.777 418.426 179.504 437.95 179.908 474.861C180.109 493.19 173.754 507.879 163.031 519.29C152.299 530.711 137.172 538.867 119.811 544.069C85.0828 554.475 41.5402 553.022 6.78633 542.377C2.33635 541.014 -2.05302 539.678 -6.37988 538.361C-58.3579 522.544 -101.313 509.472 -131.909 484.726C-164.99 457.969 -183.67 417.507 -183.417 344.884C-183.291 308.583 -176.685 282.699 -165.332 263.132C-153.98 243.569 -137.856 230.275 -118.605 219.201C-104.191 210.909 -88.0537 203.876 -70.8661 196.386C-65.0776 193.863 -59.17 191.289 -53.1689 188.597C-29.3666 177.919 -4.14122 165.411 20.7885 147.004C70.2918 110.451 130.753 128.281 173.834 166.527C195.364 185.641 212.506 209.823 221.713 234.772C230.919 259.723 232.177 285.403 222.01 307.561Z" stroke="#212121"/>
<path d="M203.31 310.496L203.035 311.097C184.665 351.13 175 372.193 170.03 391.533C165.03 410.988 164.783 428.689 165.149 462.142C165.33 478.741 159.576 492.043 149.866 502.376C140.147 512.719 126.445 520.107 110.716 524.82C79.251 534.248 39.7975 532.932 8.30756 523.287C4.27544 522.051 0.298294 520.841 -3.62213 519.648C-50.7338 505.311 -89.6557 493.467 -117.378 471.045C-147.345 446.807 -164.271 410.152 -164.043 344.342C-163.928 311.448 -157.942 287.997 -147.658 270.273C-137.375 252.552 -122.769 240.509 -105.326 230.475C-92.2647 222.961 -77.643 216.589 -62.0664 209.801C-56.8199 207.514 -51.465 205.181 -46.0249 202.74C-24.4516 193.062 -1.58607 181.725 21.012 165.039C65.8518 131.93 120.623 148.075 159.659 182.731C179.167 200.049 194.699 221.959 203.04 244.563C211.381 267.168 212.519 290.428 203.31 310.496Z" stroke="#212121"/>
<path d="M186.378 313.153L186.126 313.704C169.478 349.985 160.716 369.08 156.21 386.613C151.676 404.255 151.452 420.305 151.784 450.626C151.949 465.66 146.737 477.705 137.944 487.062C129.142 496.429 116.73 503.123 102.479 507.393C73.9685 515.936 38.2168 514.744 9.68161 506.003C6.02769 504.884 2.42368 503.787 -1.12889 502.706C-43.835 489.71 -79.1053 478.977 -104.225 458.659C-131.373 436.702 -146.713 403.493 -146.506 343.85C-146.402 314.04 -140.977 292.793 -131.661 276.737C-122.346 260.684 -109.114 249.773 -93.3077 240.68C-81.4712 233.871 -68.2213 228.097 -54.1032 221.944C-49.3473 219.872 -44.4928 217.756 -39.5606 215.543C-20.0051 206.771 0.72403 196.493 21.2112 181.365C61.8291 151.374 111.45 165.994 146.824 197.399C164.501 213.092 178.574 232.945 186.132 253.426C193.689 273.907 194.718 294.977 186.378 313.153Z" stroke="#212121"/>
<path d="M166.636 316.252L166.41 316.744C151.77 348.649 144.061 365.449 140.096 380.877C136.106 396.403 135.91 410.529 136.202 437.198C136.346 450.405 131.768 460.985 124.045 469.205C116.312 477.434 105.405 483.317 92.876 487.071C67.8115 494.582 36.3769 493.534 11.2876 485.849C8.07469 484.865 4.90578 483.9 1.7822 482.95C-35.7862 471.517 -66.798 462.079 -88.8838 444.216C-112.744 424.918 -126.233 395.728 -126.051 343.278C-125.96 317.065 -121.189 298.387 -113.001 284.276C-104.815 270.168 -93.1858 260.577 -79.2886 252.583C-68.8804 246.595 -57.2303 241.518 -44.8131 236.107C-40.6292 234.283 -36.3583 232.422 -32.0185 230.475C-14.8161 222.758 3.42155 213.716 21.447 200.406C57.1415 174.05 100.755 186.891 131.859 214.505C147.401 228.303 159.774 245.758 166.417 263.762C173.061 281.767 173.963 300.283 166.636 316.252Z" stroke="#212121"/>
<path d="M145.868 319.51L145.67 319.941C133.142 347.243 126.541 361.63 123.145 374.843C119.727 388.144 119.559 400.245 119.809 423.073C119.932 434.36 116.021 443.398 109.422 450.421C102.813 457.454 93.4896 462.484 82.7726 465.696C61.3323 472.12 34.4384 471.224 12.9734 464.649C10.2246 463.807 7.51345 462.982 4.84119 462.169C-27.3234 452.38 -53.8563 444.306 -72.7506 429.024C-93.1528 412.522 -104.695 387.56 -104.539 342.676C-104.461 320.245 -100.38 304.27 -93.3787 292.205C-86.3796 280.142 -76.4357 271.941 -64.5463 265.101C-55.6406 259.978 -45.6731 255.634 -35.045 251.002C-31.4628 249.441 -27.8057 247.847 -24.0888 246.18C-9.3616 239.574 6.25558 231.83 21.6917 220.433C52.2077 197.9 89.5026 208.871 116.116 232.498C129.412 244.302 139.996 259.234 145.678 274.633C151.361 290.034 152.13 305.863 145.868 319.51Z" stroke="#212121"/>
<path d="M125.29 322.739L125.121 323.108C114.685 345.851 109.181 357.846 106.35 368.864C103.498 379.96 103.359 390.055 103.567 409.077C103.67 418.461 100.418 425.973 94.9337 431.809C89.4397 437.656 81.6845 441.842 72.763 444.515C54.9137 449.864 32.519 449.118 14.6453 443.644C12.3561 442.942 10.0985 442.255 7.87335 441.578C-18.9367 433.419 -41.0315 426.695 -56.7635 413.971C-73.7393 400.24 -83.3533 379.467 -83.2233 342.079C-83.1584 323.396 -79.7585 310.099 -73.9339 300.061C-68.111 290.026 -59.8375 283.2 -49.9374 277.505C-42.5203 273.238 -34.2202 269.621 -25.3647 265.762C-22.3789 264.461 -19.3298 263.132 -16.2302 261.741C-3.95554 256.235 9.06509 249.78 21.9356 240.276C47.3204 221.533 78.3546 230.65 100.518 250.326C111.589 260.155 120.4 272.587 125.13 285.405C129.861 298.225 130.497 311.392 125.29 322.739Z" stroke="#212121"/>
</svg>
