<svg width="179" height="368" viewBox="0 0 179 368" fill="none" xmlns="http://www.w3.org/2000/svg">
<path d="M-68.8946 307.796C-112.747 286.317 -144.452 261.778 -161.349 232.22C-178.231 202.69 -180.375 168.077 -164.947 126.334C-149.512 84.5759 -124.405 55.8044 -91.5335 43.4107C-58.6611 31.0165 -17.915 34.9602 28.8806 58.8633C75.6868 82.7718 101.173 109.301 114.226 139.241C127.286 169.199 127.933 202.644 124.911 240.463C121.906 278.053 95.3974 305.598 58.6317 318.402C21.863 331.206 -25.1176 329.239 -68.8946 307.796Z" stroke="#212121"/>
<path d="M-65.07 298.51C-105.867 278.558 -135.379 255.81 -151.147 228.466C-166.898 201.149 -168.973 169.173 -154.741 130.647C-140.503 92.1059 -117.249 65.5908 -86.7475 54.2223C-56.244 42.8529 -18.3829 46.5915 25.1524 68.7889C68.6982 90.9916 92.4364 115.562 104.633 143.25C116.837 170.955 117.519 201.852 114.801 236.79C112.102 271.496 87.5508 296.875 53.4283 308.614C19.3029 320.355 -24.3476 318.425 -65.07 298.51Z" stroke="#212121"/>
<path d="M-60.9071 288.323C-98.1324 270.122 -125.058 249.38 -139.447 224.459C-153.82 199.567 -155.727 170.432 -142.76 135.33C-129.788 100.212 -108.589 76.0634 -80.7812 65.7178C-52.9706 55.3712 -18.4395 58.7893 21.2815 79.036C61.0129 99.2881 82.671 121.688 93.8038 146.919C104.944 172.167 105.579 200.322 103.113 232.167C100.664 263.78 78.291 286.892 47.1757 297.576C16.0575 308.261 -23.7559 306.487 -60.9071 288.323Z" stroke="#212121"/>
<path d="M-56.7461 278.137C-90.4 261.688 -114.738 242.951 -127.75 220.455C-140.745 197.987 -142.482 171.694 -130.781 140.015C-119.074 108.32 -99.932 86.538 -74.817 77.2152C-49.6993 67.8914 -18.4982 70.989 17.4086 89.2852C53.3258 107.587 72.9037 127.815 82.9727 150.59C93.0489 173.382 93.6366 198.795 91.4218 227.546C89.2249 256.066 69.0294 276.911 40.9212 286.539C12.8102 296.169 -23.1662 294.551 -56.7461 278.137Z" stroke="#212121"/>
<path d="M-51.987 266.495C-81.5595 252.046 -102.941 235.603 -114.377 215.876C-125.797 196.178 -127.342 173.134 -117.088 145.367C-106.827 117.585 -90.0343 98.5068 -67.9971 90.353C-45.957 82.198 -18.5616 84.9293 12.9861 100.996C44.5441 117.068 61.7447 134.816 70.5979 154.784C79.4582 174.768 79.9919 197.047 78.0646 222.263C76.1549 247.247 58.4484 265.502 33.777 273.924C9.10269 282.348 -22.4885 280.907 -51.987 266.495Z" stroke="#212121"/>
<path d="M-47.8241 256.31C-73.8253 243.612 -92.6195 229.174 -102.678 211.872C-112.72 194.597 -114.096 174.395 -105.107 150.052C-96.1119 125.693 -81.3752 108.982 -62.0311 101.85C-42.6838 94.7183 -18.6183 97.129 9.11523 111.245C36.8591 125.367 51.9794 140.944 59.7688 158.455C67.5652 175.982 68.0516 195.519 66.3757 217.642C64.7175 239.532 49.189 255.521 27.5247 262.888C5.85754 270.256 -21.8968 268.971 -47.8241 256.31Z" stroke="#212121"/>
<path d="M-43.6612 246.122C-66.0911 235.176 -82.2983 222.744 -90.9787 207.865C-99.6424 193.015 -100.849 175.655 -93.1259 154.735C-85.3968 133.799 -72.7162 119.454 -56.0653 113.346C-39.4108 107.236 -18.6751 109.327 5.24438 121.493C29.1741 133.664 42.2143 147.07 48.9397 162.125C55.6722 177.195 56.1112 193.99 54.6869 213.019C53.28 231.815 39.9298 245.537 21.2725 251.849C2.61255 258.162 -21.3049 257.033 -43.6612 246.122Z" stroke="#212121"/>
<path d="M-38.9043 234.48C-57.2528 225.535 -70.5034 215.395 -77.6088 203.286C-84.6973 191.205 -85.7105 177.094 -79.4341 160.087C-73.1516 143.064 -62.8211 131.424 -49.2481 126.484C-35.671 121.543 -18.7406 123.267 0.820062 133.204C20.3909 143.146 31.0538 154.071 36.5633 166.319C42.0797 178.582 42.4645 192.242 41.3276 207.737C40.208 222.996 29.3477 234.128 14.1271 239.234C-1.09626 244.341 -20.6289 243.39 -38.9043 234.48Z" stroke="#212121"/>
<path d="M-34.1474 222.839C-48.4147 215.895 -58.7089 208.047 -64.2393 198.708C-69.7524 189.397 -70.5719 178.534 -65.7423 165.441C-60.9066 152.331 -52.9264 143.395 -42.4317 139.624C-31.9318 135.851 -18.8064 137.209 -3.60414 144.917C11.6081 152.63 19.8938 161.075 24.1872 170.516C28.4873 179.971 28.8178 190.497 27.9684 202.456C27.1357 214.178 18.7665 222.72 6.98229 226.62C-4.80444 230.521 -19.9527 229.748 -34.1474 222.839Z" stroke="#212121"/>
<path d="M-29.3908 211.196C-39.5773 206.253 -46.9153 200.697 -50.8706 194.126C-54.8078 187.585 -55.4328 179.971 -52.0504 170.793C-48.6619 161.597 -43.0329 155.366 -35.6168 152.763C-28.1938 150.158 -18.8727 151.149 -8.02806 156.628C2.82625 162.112 8.73477 168.078 11.8118 174.712C14.8951 181.36 15.1711 188.752 14.609 197.175C14.0631 205.357 8.18717 211.308 -0.160917 214.004C-8.51125 216.7 -19.2758 216.105 -29.3908 211.196Z" stroke="#212121"/>
</svg>
