<svg width="459" height="940" viewBox="0 0 459 940" fill="none" xmlns="http://www.w3.org/2000/svg">
<path d="M317.792 470.452L317.101 471.321C268.811 532.038 243.44 563.938 226.815 594.865C210.101 625.957 202.231 656.055 188.763 713.385C175.35 770.476 121.551 810.967 61.1661 821.779C0.802528 832.587 -66.0179 813.71 -105.436 752.205C-125.244 721.298 -151.041 694.838 -177.812 669.539C-184.799 662.935 -191.851 656.413 -198.88 649.911C-218.798 631.487 -238.536 613.231 -256.107 593.787C-279.871 567.491 -299.634 539.063 -310.456 505.206C-321.276 471.356 -323.17 432.041 -311.139 383.954C-299.102 335.842 -282.287 304.261 -260.574 282.598C-238.863 260.937 -212.21 249.147 -180.401 240.701C-159.607 235.179 -136.65 231.095 -111.45 226.612C-98.0726 224.233 -84.0632 221.74 -69.41 218.861C-27.1783 210.562 20.3269 199.059 73.2501 177.782C126.031 156.563 173.763 156.62 214.154 170.525C254.551 184.431 287.639 212.201 311.101 246.459C358.044 315.004 366.367 409.376 317.792 470.452Z" stroke="#212121"/>
<path d="M304.789 470.412L304.124 471.248C257.807 529.484 233.47 560.084 217.523 589.75C201.49 619.576 193.941 648.448 181.022 703.438C168.159 758.189 116.564 797.023 58.6492 807.392C0.755808 817.758 -63.3284 799.654 -101.132 740.667C-120.133 711.019 -144.879 685.638 -170.557 661.371C-177.26 655.037 -184.024 648.78 -190.767 642.543C-209.872 624.872 -228.803 607.362 -245.656 588.712C-268.449 563.491 -287.403 536.225 -297.782 503.754C-308.16 471.289 -309.977 433.584 -298.437 387.462C-286.892 341.316 -270.765 311.027 -249.942 290.252C-229.121 269.478 -203.558 258.171 -173.05 250.07C-153.105 244.774 -131.086 240.857 -106.916 236.557C-94.0842 234.275 -80.6461 231.884 -66.5901 229.122C-26.0812 221.162 19.4865 210.128 70.2513 189.719C120.874 169.368 166.652 169.423 205.39 182.758C244.134 196.095 275.868 222.728 298.37 255.585C343.394 321.328 351.374 411.838 304.789 470.412Z" stroke="#212121"/>
<path d="M290.985 470.368L290.349 471.167C246.126 526.771 222.887 555.989 207.659 584.317C192.349 612.799 185.14 640.369 172.805 692.874C160.526 745.14 111.271 782.215 55.9794 792.115C0.708807 802.011 -60.4701 784.727 -96.5601 728.414C-114.704 700.104 -138.334 675.868 -162.852 652.697C-169.252 646.648 -175.711 640.674 -182.15 634.718C-200.391 617.846 -218.465 601.128 -234.556 583.322C-256.318 559.241 -274.414 533.211 -284.323 502.211C-294.23 471.217 -295.965 435.219 -284.948 391.185C-273.925 347.126 -258.528 318.21 -238.65 298.377C-218.773 278.546 -194.37 267.751 -165.242 260.017C-146.199 254.96 -125.176 251.221 -102.099 247.115C-89.8467 244.936 -77.0153 242.653 -63.5932 240.015C-24.9137 232.415 18.5967 221.879 67.0697 202.391C115.4 182.961 159.105 183.014 196.087 195.745C233.075 208.478 263.372 233.904 284.855 265.273C327.841 328.041 335.458 414.45 290.985 470.368Z" stroke="#212121"/>
<path d="M276.613 470.322L276.005 471.087C233.963 523.948 211.868 551.728 197.39 578.663C182.832 605.744 175.978 631.96 164.25 681.878C152.579 731.557 105.76 766.8 53.199 776.211C0.658851 785.619 -57.4955 769.188 -91.8013 715.66C-109.053 688.741 -131.521 665.697 -154.832 643.667C-160.917 637.917 -167.058 632.236 -173.179 626.575C-190.522 610.533 -207.705 594.639 -223.003 577.711C-243.691 554.818 -260.893 530.073 -270.312 500.604C-279.73 471.142 -281.38 436.922 -270.906 395.062C-260.427 353.176 -245.79 325.689 -226.895 306.837C-208.002 287.987 -184.805 277.725 -157.114 270.372C-139.01 265.565 -119.025 262.01 -97.0851 258.107C-85.4363 256.035 -73.2364 253.864 -60.4744 251.356C-23.6994 244.13 17.6694 234.113 63.7566 215.584C109.701 197.114 151.247 197.165 186.401 209.266C221.562 221.37 250.362 245.54 270.784 275.36C311.648 335.029 318.887 417.17 276.613 470.322Z" stroke="#212121"/>
<path d="M262.744 470.277L262.165 471.005C222.226 521.221 201.235 547.615 187.479 573.204C173.647 598.935 167.135 623.843 155.994 671.266C144.909 718.449 100.441 751.925 50.5146 760.864C0.609078 769.799 -54.6268 754.193 -87.211 703.351C-103.602 677.775 -124.948 655.882 -147.094 634.953C-152.875 629.489 -158.71 624.093 -164.525 618.713C-181 603.474 -197.323 588.376 -211.855 572.296C-231.508 550.549 -247.848 527.043 -256.795 499.053C-265.74 471.069 -267.307 438.565 -257.358 398.801C-247.403 359.011 -233.5 332.903 -215.554 314.998C-197.609 297.095 -175.578 287.348 -149.273 280.363C-132.075 275.797 -113.091 272.42 -92.2485 268.712C-81.182 266.743 -69.5915 264.681 -57.4664 262.298C-22.5291 255.433 16.773 245.916 60.558 228.314C104.201 210.768 143.663 210.817 177.054 222.312C210.45 233.808 237.807 256.766 257.205 285.092C296.022 341.772 302.895 419.793 262.744 470.277Z" stroke="#212121"/>
<path d="M248.334 470.232L247.784 470.923C210.032 518.39 190.187 543.342 177.182 567.535C164.105 591.862 157.948 615.411 147.417 660.24C136.941 704.829 94.9164 736.469 47.7275 744.918C0.559863 753.363 -51.6433 738.612 -82.4384 690.562C-97.9352 666.382 -118.116 645.684 -139.051 625.899C-144.516 620.734 -150.032 615.632 -155.53 610.547C-171.104 596.142 -186.532 581.871 -200.269 566.67C-218.846 546.114 -234.289 523.898 -242.745 497.443C-251.199 470.994 -252.681 440.273 -243.277 402.688C-233.867 365.078 -220.726 340.402 -203.766 323.481C-186.808 306.562 -165.986 297.349 -141.122 290.747C-124.866 286.431 -106.922 283.239 -87.2204 279.734C-76.7588 277.873 -65.8016 275.923 -54.3383 273.671C-21.3106 267.181 15.844 258.184 57.2367 241.543C98.4871 224.959 135.785 225.006 167.342 235.87C198.907 246.735 224.762 268.434 243.097 295.206C279.787 348.78 286.28 422.521 248.334 470.232Z" stroke="#212121"/>
<path d="M234.786 470.187L234.264 470.845C198.567 515.727 179.8 539.323 167.502 562.202C155.134 585.21 149.311 607.482 139.352 649.872C129.45 692.023 89.7217 721.936 45.1068 729.924C0.513005 737.909 -48.8389 723.963 -77.9522 678.537C-92.608 655.669 -111.693 636.095 -131.49 617.386C-136.659 612.501 -141.875 607.676 -147.073 602.868C-161.8 589.246 -176.388 575.752 -189.377 561.38C-206.942 541.943 -221.543 520.938 -229.537 495.927C-237.53 470.923 -238.931 441.877 -230.04 406.341C-221.143 370.779 -208.718 347.451 -192.685 331.454C-176.654 315.46 -156.97 306.75 -133.46 300.508C-118.089 296.426 -101.123 293.408 -82.4938 290.094C-72.601 288.334 -62.2391 286.491 -51.398 284.36C-20.1656 278.223 14.9701 269.715 54.1137 253.979C93.115 238.299 128.377 238.344 158.212 248.614C188.053 258.887 212.498 279.401 229.833 304.713C264.523 355.367 270.659 425.084 234.786 470.187Z" stroke="#212121"/>
<path d="M222.012 470.146L221.515 470.771C187.757 513.216 170.006 535.535 158.373 557.175C146.674 578.939 141.167 600.007 131.748 640.097C122.386 679.949 84.823 708.234 42.635 715.788C0.468148 723.338 -46.1955 710.151 -73.7229 667.199C-87.5857 645.568 -105.638 627.054 -124.361 609.359C-129.25 604.739 -134.184 600.176 -139.101 595.627C-153.029 582.745 -166.825 569.984 -179.108 556.392C-195.719 538.011 -209.525 518.148 -217.084 494.499C-224.642 470.856 -225.968 443.391 -217.56 409.785C-209.145 376.155 -197.396 354.097 -182.238 338.973C-167.08 323.85 -148.469 315.615 -126.237 309.711C-111.7 305.852 -95.6562 302.997 -78.0379 299.863C-68.6813 298.199 -58.8808 296.455 -48.6263 294.44C-19.0867 288.636 14.1454 280.589 51.1684 265.704C88.049 250.878 121.392 250.92 149.603 260.631C177.819 270.345 200.934 289.742 217.326 313.678C250.13 361.578 255.929 427.5 222.012 470.146Z" stroke="#212121"/>
<path d="M210.37 470.111L209.898 470.705C177.906 510.93 161.081 532.085 150.055 552.596C138.965 573.226 133.745 593.197 124.818 631.192C115.948 668.948 80.3589 695.75 40.3826 702.907C0.427401 710.061 -43.7863 697.566 -69.8685 656.869C-83.0087 636.366 -100.119 618.817 -117.865 602.047C-122.499 597.667 -127.175 593.342 -131.835 589.032C-145.035 576.822 -158.109 564.73 -169.749 551.849C-185.491 534.43 -198.573 515.608 -205.736 493.199C-212.897 470.797 -214.153 444.772 -206.186 412.927C-198.212 381.057 -187.079 360.156 -172.716 345.827C-158.356 331.499 -140.722 323.695 -119.654 318.101C-105.878 314.443 -90.6739 311.739 -73.977 308.768C-65.1091 307.191 -55.8201 305.538 -46.1003 303.628C-18.1034 298.127 13.394 290.5 48.4844 276.393C83.4325 262.343 115.027 262.384 141.757 271.585C168.493 280.789 190.396 299.169 205.928 321.85C237.014 367.241 242.506 429.705 210.37 470.111Z" stroke="#212121"/>
<path d="M197.492 470.07L197.047 470.63C167.007 508.4 151.207 528.266 140.852 547.529C130.437 566.905 125.534 585.661 117.152 621.338C108.827 656.777 75.4202 681.937 37.8904 688.657C0.381658 695.373 -41.122 683.643 -65.6056 645.44C-77.9465 626.184 -94.0159 609.704 -110.68 593.956C-115.031 589.843 -119.422 585.782 -123.798 581.734C-136.193 570.269 -148.468 558.915 -159.398 546.821C-174.178 530.466 -186.459 512.796 -193.183 491.76C-199.905 470.729 -201.086 446.298 -193.605 416.399C-186.119 386.476 -175.666 366.856 -162.185 353.406C-148.706 339.957 -132.153 332.631 -112.372 327.379C-99.4377 323.945 -85.1632 321.405 -69.4856 318.616C-61.1583 317.135 -52.4352 315.583 -43.3067 313.789C-17.0163 308.623 12.5621 301.461 45.5148 288.213C78.3252 275.023 107.985 275.062 133.077 283.7C158.176 292.339 178.738 309.594 193.32 330.887C222.505 373.502 227.658 432.142 197.492 470.07Z" stroke="#212121"/>
<path d="M183.172 470.024L182.754 470.549C154.888 505.586 140.228 524.019 130.619 541.893C120.953 559.875 116.404 577.281 108.628 610.381C100.908 643.242 69.9289 666.577 35.1198 672.809C0.331779 679.038 -38.1581 668.159 -60.8639 632.73C-72.3159 614.861 -87.2272 599.569 -102.688 584.958C-106.726 581.141 -110.801 577.373 -114.861 573.617C-126.36 562.981 -137.746 552.449 -147.885 541.229C-161.596 526.058 -172.986 509.669 -179.223 490.159C-185.457 470.654 -186.552 447.994 -179.613 420.261C-172.668 392.504 -162.974 374.307 -150.472 361.835C-137.973 349.364 -122.622 342.569 -104.274 337.697C-92.2749 334.511 -79.034 332.156 -64.4899 329.568C-56.7638 328.194 -48.6699 326.754 -40.1991 325.09C-15.8063 320.296 11.638 313.651 42.2134 301.359C72.6464 289.124 100.155 289.161 123.426 297.172C146.703 305.185 165.774 321.188 179.299 340.937C206.37 380.465 211.145 434.852 183.172 470.024Z" stroke="#212121"/>
<path d="M169.162 469.978L168.773 470.466C143.032 502.831 129.486 519.863 120.608 536.379C111.676 552.995 107.472 569.08 100.288 599.659C93.1604 629.998 64.5568 651.548 32.4095 657.304C0.283371 663.056 -35.258 653.009 -56.2244 620.294C-66.8067 603.782 -80.5851 589.652 -94.8684 576.153C-98.5999 572.627 -102.364 569.145 -106.116 565.675C-116.738 555.85 -127.256 546.121 -136.621 535.758C-149.285 521.744 -159.805 506.608 -165.564 488.591C-171.321 470.58 -172.333 449.653 -165.924 424.039C-159.509 398.399 -150.555 381.596 -139.013 370.08C-127.472 358.565 -113.298 352.291 -96.35 347.791C-85.2666 344.848 -73.0369 342.672 -59.6018 340.282C-52.4639 339.012 -44.9857 337.682 -37.1584 336.144C-14.6222 331.716 10.7342 325.576 38.9837 314.219C67.0909 302.919 92.4948 302.954 113.984 310.351C135.479 317.751 153.091 332.529 165.582 350.769C190.585 387.277 194.991 437.501 169.162 469.978Z" stroke="#212121"/>
<path d="M155.099 469.933L154.739 470.386C131.132 500.068 118.705 515.693 110.559 530.845C102.363 546.092 98.5064 560.852 91.9172 588.899C85.3841 616.707 59.1644 636.465 29.6888 641.742C0.234302 647.016 -32.3476 637.804 -51.5682 607.814C-61.2777 592.664 -73.9189 579.7 -87.0207 567.318C-90.4441 564.083 -93.8974 560.889 -97.3385 557.706C-107.082 548.694 -116.727 539.772 -125.316 530.268C-136.93 517.416 -146.575 503.538 -151.855 487.019C-157.133 470.507 -158.061 451.32 -152.185 427.831C-146.302 404.318 -138.091 388.913 -127.511 378.357C-116.932 367.803 -103.939 362.05 -88.3975 357.923C-78.2329 355.224 -67.0182 353.229 -54.6961 351.037C-48.1486 349.873 -41.2884 348.652 -34.1068 347.241C-13.4342 343.179 9.82664 337.546 35.7417 327.128C61.5143 316.767 84.8057 316.8 104.506 323.581C124.213 330.365 140.361 343.914 151.814 360.638C174.741 394.115 178.776 440.163 155.099 469.933Z" stroke="#212121"/>
<path d="M141.037 469.888L140.705 470.306C119.231 497.305 107.923 511.523 100.511 525.312C93.0508 539.19 89.5409 552.623 83.5463 578.139C77.6079 603.416 53.7721 621.381 26.9681 626.181C0.185241 630.976 -29.4372 622.6 -46.912 595.333C-55.7486 581.545 -67.2527 569.748 -79.1731 558.483C-82.2884 555.539 -85.4307 552.632 -88.5617 549.736C-97.4253 541.537 -106.198 533.423 -114.011 524.778C-124.575 513.088 -133.345 500.467 -138.146 485.447C-142.945 470.434 -143.79 452.986 -138.445 431.624C-133.094 410.237 -125.628 396.231 -116.009 386.635C-106.393 377.04 -94.5804 371.809 -80.4451 368.056C-71.1992 365.601 -60.9995 363.786 -49.7905 361.792C-43.8333 360.733 -37.591 359.622 -31.0553 358.338C-12.2461 354.642 8.91911 349.517 32.4997 340.037C55.9378 330.614 77.1167 330.645 95.0289 336.811C112.948 342.979 127.631 355.299 138.046 370.508C158.897 400.953 162.562 442.824 141.037 469.888Z" stroke="#212121"/>
<path d="M128.211 469.849L127.906 470.233C108.378 494.786 98.0908 507.72 91.3468 520.266C84.5583 532.894 81.3647 545.118 75.9125 568.326C70.5164 591.295 48.8548 607.625 24.4876 611.988C0.141572 616.347 -26.7816 608.733 -42.6642 583.951C-50.7046 571.405 -61.1715 560.672 -72.0143 550.425C-74.8486 547.746 -77.7072 545.102 -80.5553 542.468C-88.6168 535.011 -96.5939 527.633 -103.699 519.771C-113.305 509.141 -121.277 497.668 -125.641 484.015C-130.003 470.368 -130.772 454.507 -125.912 435.084C-121.047 415.637 -114.258 402.905 -105.518 394.185C-96.7792 385.466 -86.0436 380.711 -73.1907 377.298C-64.7828 375.066 -55.5089 373.416 -45.3152 371.603C-39.8964 370.639 -34.2177 369.629 -28.271 368.46C-11.1615 365.098 8.09242 360.436 29.5437 351.812C50.8527 343.245 70.1047 343.274 86.3858 348.879C102.673 354.486 116.021 365.684 125.49 379.51C144.447 407.191 147.774 445.252 128.211 469.849Z" stroke="#212121"/>
<path d="M113.52 469.801L113.244 470.148C95.945 491.898 86.8264 503.363 80.8481 514.485C74.8287 525.682 71.9975 536.521 67.1665 557.084C62.3916 577.409 43.2204 591.867 21.6443 595.731C0.0892418 599.59 -23.7423 592.849 -37.801 570.912C-44.9296 559.789 -54.2085 550.274 -63.817 541.194C-66.3296 538.82 -68.8632 536.476 -71.3873 534.141C-78.53 527.535 -85.5957 520.999 -91.8894 514.035C-100.398 504.619 -107.457 494.459 -111.321 482.372C-115.182 470.291 -115.864 456.247 -111.56 439.046C-107.25 421.819 -101.239 410.549 -93.5036 402.831C-85.77 395.115 -76.268 390.906 -64.8839 387.883C-57.4359 385.905 -49.2223 384.444 -40.1913 382.838C-35.3893 381.983 -30.3562 381.088 -25.0842 380.052C-9.92143 377.073 7.14324 372.941 26.1558 365.297C45.0259 357.711 62.071 357.738 76.4838 362.699C90.9029 367.663 102.721 377.577 111.105 389.82C127.894 414.334 130.833 448.032 113.52 469.801Z" stroke="#212121"/>
<path d="M97.7679 469.751L97.524 470.057C82.6151 488.803 74.7498 498.692 69.5925 508.286C64.3978 517.95 61.9551 527.303 57.7901 545.032C53.6813 562.521 37.1804 574.972 18.5969 578.299C0.0344505 581.623 -20.4821 575.817 -32.5854 556.932C-38.7361 547.335 -46.7413 539.127 -55.0264 531.297C-57.1941 529.248 -59.3794 527.227 -61.556 525.214C-67.7136 519.518 -73.8021 513.887 -79.226 507.885C-86.5585 499.771 -92.6376 491.02 -95.9646 480.611C-99.2897 470.208 -99.8778 458.114 -96.1699 443.294C-92.4558 428.449 -87.2776 418.745 -80.6202 412.103C-73.9645 405.462 -65.785 401.837 -55.976 399.232C-49.557 397.528 -42.4803 396.269 -34.6962 394.884C-30.5554 394.148 -26.2145 393.375 -21.6659 392.482C-8.5905 389.912 6.12683 386.349 22.5244 379.757C38.7796 373.222 53.4585 373.246 65.868 377.518C78.2838 381.792 88.4618 390.33 95.6835 400.875C110.147 421.994 112.671 451.012 97.7679 469.751Z" stroke="#212121"/>
<path d="M82.2634 469.702L82.0513 469.968C69.4945 485.756 62.8628 494.095 58.5136 502.185C54.1306 510.339 52.0703 518.231 48.5609 533.168C45.1077 547.867 31.2352 558.342 15.5972 561.142C-0.0195877 563.938 -17.2732 559.054 -27.4517 543.172C-32.6401 535.076 -39.3915 528.154 -46.374 521.556C-48.202 519.828 -50.0443 518.124 -51.879 516.427C-57.0669 511.628 -62.1936 506.886 -66.7616 501.832C-72.9362 494.999 -78.051 487.634 -80.8499 478.878C-83.6469 470.128 -84.1429 459.951 -81.0216 447.476C-77.8939 434.975 -73.5357 426.812 -67.9392 421.229C-62.3444 415.647 -55.4668 412.596 -47.208 410.404C-41.802 408.968 -35.8444 407.908 -29.2875 406.742C-25.7976 406.121 -22.138 405.47 -18.3014 404.716C-7.28059 402.551 5.12627 399.547 18.95 393.989C32.6314 388.489 44.981 388.511 55.4188 392.104C65.8629 395.699 74.4264 402.882 80.5037 411.756C92.6781 429.533 94.7939 453.946 82.2634 469.702Z" stroke="#212121"/>
</svg>
