<svg width="134" height="51" viewBox="0 0 134 51" fill="none" xmlns="http://www.w3.org/2000/svg">
<title>Logotype</title>
<path fill-rule="evenodd" clip-rule="evenodd" d="M109.494 45.6105L108.263 47.9772L107.033 45.6105H106.19L107.883 48.6475V50.5938H108.624V48.5423H108.699L110.336 45.6077L109.494 45.6105ZM93.522 49.2666C93.3608 49.4904 93.1469 49.6712 92.8994 49.7931C92.6518 49.9149 92.3782 49.9741 92.1025 49.9652C91.6165 49.9497 91.1557 49.7458 90.8174 49.3965C90.4791 49.0472 90.2899 48.58 90.2899 48.0937C90.2899 47.6074 90.4791 47.1402 90.8174 46.7908C91.1557 46.4416 91.6165 46.2376 92.1025 46.2222C92.4032 46.2116 92.7014 46.2821 92.9655 46.4266C93.1874 46.5484 93.3781 46.7198 93.523 46.9274L94.1694 46.5573C93.9378 46.2273 93.6291 45.9588 93.2702 45.7752C92.9113 45.5916 92.513 45.4984 92.11 45.5037C91.767 45.4946 91.4259 45.5556 91.1073 45.6829C90.7887 45.8102 90.4994 46.001 90.257 46.2438C90.0146 46.4866 89.8242 46.7764 89.6974 47.0951C89.5707 47.414 89.5102 47.7554 89.5197 48.0984C89.5122 48.4409 89.5741 48.7812 89.7018 49.099C89.8294 49.4169 90.0202 49.7055 90.2624 49.9476C90.5047 50.1897 90.7934 50.38 91.1114 50.5074C91.4292 50.6348 91.7695 50.6963 92.1119 50.6885C92.5159 50.6956 92.9155 50.6035 93.2756 50.4203C93.6358 50.237 93.9456 49.9683 94.1779 49.6377L93.522 49.2666ZM76.3146 45.6087V49.135L73.8455 45.6087H73.272V50.6033H74.0139V47.0646L76.485 50.6033H77.0585V45.6087H76.3146ZM58.2944 49.8876V48.426H60.2818V47.7302H58.2944V46.3197H60.471V45.6087H57.5372V50.6033H60.5089V49.8924L58.2944 49.8876ZM42.641 48.0473V48.6844H44.3009L44.2442 48.8681C44.0265 49.5686 43.416 49.9709 42.5699 49.9709C41.4343 49.9709 40.6337 49.206 40.6337 48.1108C40.6248 47.8624 40.6671 47.6151 40.7575 47.3837C40.848 47.1524 40.9849 46.942 41.1597 46.7656C41.3346 46.5892 41.5437 46.4505 41.7742 46.358C42.0046 46.2655 42.2516 46.2212 42.4999 46.2278C42.7788 46.218 43.056 46.2748 43.3085 46.3937C43.561 46.5126 43.7815 46.6901 43.9517 46.9113L44.5943 46.5402C44.3685 46.231 44.0757 45.977 43.7378 45.797C43.3559 45.5922 42.9274 45.4901 42.4943 45.5008H42.4479C42.102 45.5002 41.7594 45.5686 41.4403 45.702C41.1212 45.8356 40.8319 46.0313 40.5893 46.278C40.3468 46.5246 40.1558 46.8172 40.0277 47.1385C39.8995 47.4599 39.8368 47.8036 39.8432 48.1496C39.8494 48.4954 39.9246 48.8367 40.0643 49.1531C40.2041 49.4696 40.4056 49.7551 40.657 49.9927C40.9083 50.2304 41.2045 50.4155 41.5283 50.5373C41.8521 50.6589 42.1969 50.7149 42.5425 50.7017C44.0094 50.7017 44.9909 49.7418 44.9909 48.3133V48.0473H42.641ZM26.2323 45.6087H25.1515L23.4102 50.6033H24.2288L24.5439 49.6566H26.8455L27.1607 50.6033H27.9831L26.2323 45.6087ZM24.7796 48.9618L25.7004 46.2165L26.6175 48.9618H24.7796Z" fill="#FDDD0A"/>
<path d="M42.1426 0.0342579V36.1078H51.1779V0L42.1426 0.0342579Z" fill="#FDDD0A"/>
<path d="M98.3329 0H87.7979L77.2617 21.3021L66.7307 0H56.1895L73.8667 36.1078H80.6567L98.3329 0Z" fill="#FDDD0A"/>
<path fill-rule="evenodd" clip-rule="evenodd" d="M115.153 0.000623604C110.937 0.0212208 106.861 1.50258 103.616 4.19213C100.371 6.88168 98.1605 10.6129 97.3604 14.7495C96.5603 18.8862 97.2206 23.1722 99.2284 26.8767C101.236 30.5812 104.468 33.4748 108.371 35.0643C112.275 36.6537 116.609 36.8404 120.635 35.5927C124.661 34.3449 128.129 31.74 130.448 28.2219C132.768 24.7038 133.795 20.4907 133.354 16.3004C132.913 12.1103 131.032 8.20282 128.03 5.24416C126.337 3.563 124.327 2.23401 122.116 1.334C119.907 0.433985 117.54 -0.0192044 115.153 0.000623604ZM115.153 27.0768C112.771 27.0754 110.489 26.1289 108.806 24.4455C107.124 22.762 106.179 20.4794 106.179 18.0997C106.18 15.7199 107.126 13.4379 108.81 11.7554C110.494 10.0729 112.777 9.12776 115.158 9.12776C117.539 9.12776 119.821 10.0729 121.506 11.7554C123.189 13.4379 124.135 15.7199 124.136 18.0997C124.137 20.4794 123.192 22.762 121.509 24.4455C119.826 26.1289 117.544 27.0754 115.163 27.0768H115.153Z" fill="#FDDD0A"/>
<path fill-rule="evenodd" clip-rule="evenodd" d="M36.1186 13.0387C36.1186 18.7485 32.3278 23.6047 27.051 25.3685L32.4472 36.1078H21.9516L12.3512 17.0511H12.3782L12.3273 16.9473H23.4711C25.7008 16.9473 27.509 15.196 27.509 13.0356C27.509 10.8753 25.7008 9.12402 23.4711 9.12402H7.50218L3.00938 0H22.664C30.0949 0 36.1186 5.83838 36.1186 13.0387ZM5.01276 26.0786C3.85227 26.0793 2.72797 26.4823 1.83139 27.2188C0.934809 27.9554 0.321434 28.9797 0.0957655 30.1176C-0.129903 31.2554 0.0460962 32.4364 0.593777 33.4591C1.14146 34.4817 2.02694 35.283 3.09934 35.7262C4.17176 36.1695 5.36476 36.2274 6.47509 35.89C7.58541 35.5527 8.54437 34.841 9.18858 33.8761C9.83279 32.9112 10.1224 31.753 10.0081 30.5986C9.89371 29.4443 9.3825 28.3652 8.56151 27.5454C8.09563 27.0796 7.54235 26.7102 6.93339 26.4585C6.32442 26.2067 5.67174 26.0777 5.01276 26.0786Z" fill="#FDDD0A"/>
</svg>

