<svg width="93" height="36" viewBox="0 0 93 36" fill="none" xmlns="http://www.w3.org/2000/svg">
<path fill-rule="evenodd" clip-rule="evenodd" d="M75.8031 31.5765L74.951 33.2138L74.0996 31.5765H73.5154L74.6881 33.6775V35.024H75.2009V33.6048H75.2528L76.3858 31.5745L75.8031 31.5765ZM64.7456 34.1058C64.634 34.2607 64.486 34.3857 64.3146 34.4701C64.1432 34.5544 63.9537 34.5953 63.7629 34.5891C63.4264 34.5784 63.1074 34.4374 62.8732 34.1957C62.639 33.954 62.508 33.6308 62.508 33.2944C62.508 32.9579 62.639 32.6347 62.8732 32.393C63.1074 32.1514 63.4264 32.0102 63.7629 31.9996C63.9711 31.9922 64.1775 32.0411 64.3603 32.141C64.514 32.2253 64.646 32.3439 64.7463 32.4875L65.1938 32.2314C65.0335 32.0031 64.8197 31.8174 64.5713 31.6904C64.3228 31.5633 64.0471 31.4988 63.768 31.5025C63.5306 31.4962 63.2944 31.5384 63.0739 31.6265C62.8533 31.7145 62.653 31.8466 62.4852 32.0146C62.3174 32.1825 62.1856 32.383 62.0978 32.6035C62.0101 32.8241 61.9682 33.0603 61.9748 33.2976C61.9696 33.5346 62.0125 33.77 62.1008 33.9899C62.1892 34.2098 62.3213 34.4095 62.4889 34.577C62.6567 34.7445 62.8566 34.8761 63.0767 34.9643C63.2967 35.0524 63.5324 35.0949 63.7694 35.0895C64.0491 35.0944 64.3257 35.0307 64.5751 34.904C64.8244 34.7772 65.0389 34.5913 65.1997 34.3626L64.7456 34.1058ZM52.8328 31.5752V34.0148L51.1234 31.5752H50.7264V35.0306H51.24V32.5824L52.9507 35.0306H53.3478V31.5752H52.8328ZM40.3572 34.5354V33.5243H41.7332V33.0429H40.3572V32.0671H41.8642V31.5752H39.8331V35.0306H41.8904V34.5387L40.3572 34.5354ZM29.5203 33.2623V33.703H30.6694L30.6302 33.8301C30.4795 34.3148 30.0568 34.5931 29.4711 34.5931C28.6849 34.5931 28.1306 34.0639 28.1306 33.3062C28.1245 33.1344 28.1537 32.9632 28.2163 32.8032C28.279 32.6431 28.3738 32.4976 28.4948 32.3756C28.6159 32.2535 28.7606 32.1576 28.9202 32.0936C29.0797 32.0295 29.2507 31.9989 29.4226 32.0035C29.6157 31.9967 29.8076 32.036 29.9824 32.1183C30.1572 32.2005 30.3099 32.3233 30.4277 32.4764L30.8726 32.2196C30.7162 32.0057 30.5136 31.83 30.2796 31.7055C30.0153 31.5638 29.7186 31.4931 29.4187 31.5005H29.3866C29.1472 31.5001 28.91 31.5474 28.689 31.6397C28.4681 31.7321 28.2678 31.8675 28.0999 32.0382C27.932 32.2088 27.7998 32.4112 27.7111 32.6336C27.6224 32.8559 27.5789 33.0937 27.5833 33.333C27.5876 33.5723 27.6397 33.8084 27.7365 34.0273C27.8332 34.2463 27.9727 34.4438 28.1467 34.6082C28.3208 34.7726 28.5258 34.9007 28.75 34.9849C28.9741 35.0691 29.2128 35.1078 29.4521 35.0987C30.4677 35.0987 31.1471 34.4346 31.1471 33.4463V33.2623H29.5203ZM18.1604 31.5752H17.4122L16.2066 35.0306H16.7734L16.9915 34.3757H18.585L18.8032 35.0306H19.3725L18.1604 31.5752ZM17.1547 33.8949L17.7922 31.9956L18.4271 33.8949H17.1547Z" fill="#212121"/>
<path d="M29.1755 0.0236868V24.998H35.4308V-3.05176e-05L29.1755 0.0236868Z" fill="#212121"/>
<path d="M68.077 -3.05176e-05H60.7835L53.4892 14.7478L46.1985 -3.05176e-05H38.9007L51.1388 24.998H55.8396L68.077 -3.05176e-05Z" fill="#212121"/>
<path fill-rule="evenodd" clip-rule="evenodd" d="M79.7214 -2.60328e-05C76.8028 0.0142337 73.9807 1.0398 71.7342 2.90182C69.488 4.76384 67.9575 7.34699 67.4036 10.2109C66.8497 13.0747 67.3068 16.042 68.6968 18.6067C70.0869 21.1714 72.324 23.1747 75.0266 24.2751C77.7291 25.3755 80.7299 25.5047 83.5167 24.641C86.3042 23.7771 88.705 21.9736 90.3105 19.538C91.9168 17.1024 92.6277 14.1856 92.3223 11.2846C92.0169 8.38372 90.7146 5.67849 88.6365 3.63016C87.4646 2.46627 86.073 1.54619 84.5424 0.923092C83.0125 0.299997 81.3738 -0.0137532 79.7214 -2.60328e-05ZM79.7214 18.7452C78.0727 18.7443 76.4924 18.089 75.3277 16.9236C74.1629 15.758 73.5089 14.1778 73.5089 12.5303C73.5096 10.8827 74.1644 9.3028 75.3305 8.13799C76.496 6.9732 78.0763 6.31884 79.725 6.31884C81.3731 6.31884 82.9534 6.9732 84.1196 8.13799C85.285 9.3028 85.9398 10.8827 85.9405 12.5303C85.9412 14.1778 85.2872 15.758 84.1217 16.9236C82.957 18.089 81.3767 18.7443 79.7287 18.7452H79.7214Z" fill="#212121"/>
<path fill-rule="evenodd" clip-rule="evenodd" d="M25.0052 9.0269C25.0052 12.9798 22.3808 16.3419 18.7276 17.563L22.4635 24.998H15.1973L8.55084 11.8047H8.56949L8.53427 11.7329H16.2492C17.7929 11.7329 19.0447 10.5204 19.0447 9.02474C19.0447 7.52915 17.7929 6.31668 16.2492 6.31668H5.19382L2.08342 -3.05176e-05H15.6905C20.835 -3.05176e-05 25.0052 4.04198 25.0052 9.0269ZM3.47037 18.0546C2.66696 18.0551 1.88859 18.3341 1.26788 18.844C0.647175 19.3539 0.222531 20.0631 0.0662992 20.8509C-0.0899325 21.6386 0.0319128 22.4562 0.411076 23.1642C0.790243 23.8722 1.40326 24.427 2.1457 24.7338C2.88814 25.0407 3.71406 25.0808 4.48276 24.8472C5.25144 24.6137 5.91534 24.121 6.36133 23.453C6.80732 22.7849 7.00781 21.9831 6.92865 21.1839C6.84949 20.3848 6.49558 19.6377 5.9272 19.0701C5.60466 18.7476 5.22163 18.4919 4.80004 18.3176C4.37844 18.1433 3.92659 18.054 3.47037 18.0546Z" fill="#212121"/>
</svg>
