<svg width="146" height="68" viewBox="0 0 146 68" fill="none" xmlns="http://www.w3.org/2000/svg">
<path d="M45.766 24.8398C43.7076 20.9991 39.7076 18.4991 38.2076 17.9991C36.0089 17.3034 36.162 16.8581 38.7076 16.9991C41.2532 17.1401 44.775 17.9103 46.543 19.6778C48.3111 21.4452 48.8066 24.91 47.3925 25.6173C46.2612 26.1832 45.8368 25.3347 45.766 24.8398Z" fill="white"/>
<path d="M56.8855 21.8684C56.4773 23.1205 55.3549 23.0857 54.8448 22.9118C53.8244 21.3468 54.3346 19.8249 54.3346 16.6517C54.3346 13.5217 54.8448 13 55.8651 13C56.8855 13 56.3753 14.0433 56.8855 14.565C57.3957 15.0867 57.9059 14.565 60.9669 15.0867C64.5067 15.6899 63.207 18.435 63.207 20C63.207 21.565 61.9873 22.3901 60.9669 21.8684C59.9466 21.3468 60.4568 20.8251 60.4568 19.2601C60.4568 17.6104 59.4364 17.1734 57.9059 17.6951C56.3753 18.2167 57.3957 20.3034 56.8855 21.8684Z" fill="white"/>
<path d="M88.207 31.4991C87.807 30.6991 86.707 29.9991 85.707 29.9991C84.707 29.9991 84.707 30.4991 84.707 31.9991C84.707 32.8487 85.6056 34.8093 86.707 36.4991C87.5503 37.7929 88.4061 38.9991 89.707 38.9991C92.707 38.9991 93.707 32.4991 94.707 30.9991C95.707 29.4991 94.207 27.9991 92.207 29.9991L90.207 31.9991C89.707 32.4991 88.707 32.4991 88.207 31.4991Z" fill="white"/>
<path d="M29.103 33.1821C28.3938 32.9227 27.1152 32.5799 25.6615 32.5799C24.2078 32.5799 23.7078 32.9994 24.2078 33.7842C24.4826 34.2157 25.514 35.4764 27.1152 36.494C28.3411 37.2731 29.5853 37.9994 31.4764 37.9994C35.8376 37.9994 37.2823 35.3647 38.745 33.1821C40.2078 30.9994 39.7078 30.9994 36.2078 32.9994C35.2417 33.5514 33.0824 33.7842 32.2078 33.7842C31.421 33.7842 30.515 33.6983 29.103 33.1821Z" fill="white"/>
<path d="M123.634 39.4738C123.014 38.6709 120.707 38.5009 119.207 38.0009C117.707 37.5009 117.707 38.5009 118.207 39.9757C118.481 40.7831 120.999 43.305 122.707 45.0009C124.015 46.2994 124.19 47.5009 126.207 47.5009C128.297 47.5009 130.207 46.5009 131.207 44.5009C132.207 42.5009 135.707 41.0009 136.207 38.5009C136.707 36.0009 135.309 37.4937 132.207 39.5009C131.111 40.2106 129.207 41.0009 127.207 41.0009C126.284 41.0009 124.41 40.4774 123.634 39.4738Z" fill="white"/>
<path d="M98.7071 19.5C98.2071 18.5 100.303 15 102.803 15C103.707 15 108.593 15.7158 110.207 16.5C112.162 17.4498 110.707 20.5 109.207 19C107.707 17.5 104.111 18 102.207 18C100.707 18 99.2071 20.5 98.7071 19.5Z" fill="white"/>
<path d="M72.207 17.999C73.407 17.199 77.707 17.999 79.207 18.999C80.707 19.999 80.707 17.999 79.207 15.999C77.707 13.999 71.6542 13.8182 69.6542 15.3182C67.6542 16.8182 68.1542 21.3182 68.6542 22.3182C69.1542 23.3182 71.1542 23.3182 71.6542 22.3182C72.1542 21.3182 70.707 18.999 72.207 17.999Z" fill="white"/>
<path d="M123.208 18.8115C125.286 17.9879 131.208 18.0008 133.708 19.5008C136.208 21.0008 140.208 24.19 139.708 21.5008C139.208 18.8115 134.957 16.5518 133.259 15.723C128.708 13.5008 121.172 15.4565 117.708 17.0008C114.244 18.545 113.342 22.4713 114.208 23.5008C115.074 24.5303 117.708 24.5008 118.708 23.0008C119.948 21.1403 120.61 19.841 123.208 18.8115Z" fill="white"/>
<path d="M18.3994 43.8369C17.4831 43.3745 15.6729 43.5561 14.6728 44.5717C13.6728 45.5874 12.105 47.7105 12.2071 45.9995C12.3091 44.2885 13.3177 42.735 14.0045 42.1651C15.8461 40.6371 19.1264 41.6633 20.6606 42.5423C22.1949 43.4213 23.0326 45.8259 22.7071 46.4995C22.3816 47.1732 21.2619 47.2272 20.7757 46.3082C20.1727 45.1682 19.5448 44.4149 18.3994 43.8369Z" fill="white"/>
<path d="M19.5006 2.3094C28.7276 4.60327 31.9889 9.41676 32.4661 11.5368C23.0162 10.488 15.8631 16.6502 13.4678 19.8624C12.434 16.2835 13.7918 12.5761 14.7024 10.8368C12.5247 14.1578 8.11776 17.8446 6.25265 18.8923L4.48001 17.1294C5.70006 15.099 8.91545 10.1168 12.0166 6.43128C15.1177 2.74576 18.298 2.14772 19.5006 2.3094Z" fill="#FD0A0A"/>
<path d="M0.738037 19.1916C1.51137 17.5631 3.91318 16.7079 4.97481 17.0585C6.03644 17.4092 6.10852 17.9039 6.25267 18.8935C6.39682 19.883 6.26242 22.429 2.7269 22.4388C0.706585 22.4443 -0.0352922 20.82 0.738037 19.1916Z" fill="white"/>
<path d="M36.3001 17.0431C35.6238 17.95 33.0497 17.8534 31.8471 17.6917C26.7552 17.4229 23.4359 18.917 21.1783 20.7617C19.204 22.3749 16.6711 23.9447 15.1065 24.1726C13.1274 24.4609 12.1069 22.1868 13.4683 19.8638C15.087 17.1016 17.8498 15.2555 20.1692 13.8349C23.4164 11.846 27.7973 10.7025 32.4666 11.5382C37.1358 12.3738 37.1456 15.9093 36.3001 17.0431Z" fill="white"/>
</svg>
