<svg xmlns="http://www.w3.org/2000/svg" xmlns:xlink="http://www.w3.org/1999/xlink" version="1.1" id="Layer_1" x="0px" y="0px" viewBox="0 0 1080 1080" style="enable-background:new 0 0 1080 1080;" xml:space="preserve">
<style type="text/css">
	.st0{fill:#FFF100;}
	.st1{fill:#FFFFFF;}
	.st2{font-family:'MBCorpoSTitle-Bold';}
	.st3{font-size:195.6873px;}
	.st4{font-size:117.4124px;}
	.st5{font-size:85px;}
	.st6{fill:#EC1C24;}
	.st7{clip-path:url(#SVGID_00000098182751623436447850000011338825659147110788_);}
	.st8{fill:#F26F21;}
	.st9{clip-path:url(#SVGID_00000004534680416002657400000005991472246371092139_);}
	.st10{fill:#FCB813;}
	.st11{clip-path:url(#SVGID_00000047033192541308236110000015218839451814133638_);}
	.st12{fill:#00A551;}
	.st13{fill:#50B748;}
	.st14{fill:#BED630;}
	.st15{clip-path:url(#SVGID_00000181792796394439174420000015140977916596858508_);}
	.st16{clip-path:url(#SVGID_00000079484377284595036230000011742021552531408023_);}
	.st17{clip-path:url(#SVGID_00000079453940336615428630000002339834997442360980_);}
</style>
<g>
	<polygon class="st0" points="1080,540 966.6,420 959.3,420 958.8,420 861,420 839.5,420 810.2,420 0,420 0,540 0,660 810.2,660    839.5,660 861,660 958.8,660 959.3,660 966.6,660  "/>
	<text transform="matrix(1 0 0 1 26.2593 605.3722)" class="st1 st2 st3">D</text>
	<text transform="matrix(1 0 0 1 191.8926 579.2457)" class="st1 st2 st4">144gCO</text>
	<text transform="matrix(1 0 0 1 587.6826 579.2457)" class="st1 st2 st5">2</text>
	<text transform="matrix(1 0 0 1 633.2426 579.2457)" class="st1 st2 st4">/km</text>
	<g>
		<polygon class="st6" points="1018,960 992.5,960 957.9,960 0,960 0,1080 957.9,1080 992.5,1080 1018,1080 1077.7,1020   "/>
		<g>
			<g>
				<defs>
					<polygon id="SVGID_1_" points="140,960 136.6,960 131.8,960 0,960 0,1080 131.8,1080 136.6,1080 140,1080      "/>
				</defs>
				<clipPath id="SVGID_00000031168487824434034510000002662353838464716950_">
					<use xlink:href="#SVGID_1_" style="overflow:visible;"/>
				</clipPath>
				<g style="clip-path:url(#SVGID_00000031168487824434034510000002662353838464716950_);">
					<text transform="matrix(1 0 0 1 34.7073 1059.202)" class="st1 st2 st4">G</text>
				</g>
			</g>
		</g>
	</g>
	<g>
		<polygon class="st8" points="898.3,820 872.9,820 838.2,820 0,820 0,940 838.2,940 872.9,940 898.3,940 958,880   "/>
		<g>
			<g>
				<defs>
					<polygon id="SVGID_00000013183497871136623720000010752177659708556196_" points="140,820 136.6,820 131.8,820 0,820 0,940        131.8,940 136.6,940 140,940      "/>
				</defs>
				<clipPath id="SVGID_00000061458455634098260510000011052945456869921417_">
					<use xlink:href="#SVGID_00000013183497871136623720000010752177659708556196_" style="overflow:visible;"/>
				</clipPath>
				<g style="clip-path:url(#SVGID_00000061458455634098260510000011052945456869921417_);">
					<text transform="matrix(1 0 0 1 31.4434 919.2312)" class="st1 st2 st4">F</text>
				</g>
			</g>
		</g>
	</g>
	<g>
		<polygon class="st10" points="777.9,680 752.5,680 717.9,680 0,680 0,800 717.9,800 752.5,800 777.9,800 837.6,740   "/>
		<g>
			<g>
				<defs>
					<polygon id="SVGID_00000121976712546111242300000001904869003804985745_" points="140,680 136.6,680 131.8,680 0,680 0,800        131.8,800 136.6,800 140,800      "/>
				</defs>
				<clipPath id="SVGID_00000046332926002445477820000011695689593856368305_">
					<use xlink:href="#SVGID_00000121976712546111242300000001904869003804985745_" style="overflow:visible;"/>
				</clipPath>
				<g style="clip-path:url(#SVGID_00000046332926002445477820000011695689593856368305_);">
					<text transform="matrix(1 0 0 1 31.4434 779.2126)" class="st1 st2 st4">E</text>
				</g>
			</g>
		</g>
	</g>
	<polygon class="st12" points="300.1,0 240,0 0,0 0,120.2 240,120.2 300.1,120.2 360,60.1  "/>
	<polygon class="st13" points="419.3,140 395.9,140 386,140 372.5,140 359.2,140 0,140 0,260 359.2,260 372.5,260 386,260    395.9,260 419.3,260 479,200  "/>
	<polygon class="st14" points="540.1,280 494.8,280 482.4,280 465.6,280 449,280 0,280 0,400 449,400 465.6,400 482.4,400    494.8,400 539.7,400 598.6,340  "/>
	<g>
		<g>
			<g>
				<defs>
					<polygon id="SVGID_00000034781187582961335490000005540764912533038217_" points="140,280 136.6,280 131.8,280 0,280 0,400        131.8,400 136.6,400 140,400      "/>
				</defs>
				<clipPath id="SVGID_00000088824097135149970900000001606100778658481835_">
					<use xlink:href="#SVGID_00000034781187582961335490000005540764912533038217_" style="overflow:visible;"/>
				</clipPath>
				<g style="clip-path:url(#SVGID_00000088824097135149970900000001606100778658481835_);">
					<text transform="matrix(1 0 0 1 34.6833 379.1973)" class="st1 st2 st4">C</text>
				</g>
			</g>
		</g>
	</g>
	<g>
		<g>
			<g>
				<defs>
					<polygon id="SVGID_00000003069151642052481010000010547704901979390647_" points="140,140 136.6,140 131.8,140 0,140 0,260        131.8,260 136.6,260 140,260      "/>
				</defs>
				<clipPath id="SVGID_00000065782574949429850290000015325362382258702751_">
					<use xlink:href="#SVGID_00000003069151642052481010000010547704901979390647_" style="overflow:visible;"/>
				</clipPath>
				<g style="clip-path:url(#SVGID_00000065782574949429850290000015325362382258702751_);">
					<text transform="matrix(1 0 0 1 31.4595 239.2114)" class="st1 st2 st4">B</text>
				</g>
			</g>
		</g>
	</g>
	<g>
		<g>
			<g>
				<defs>
					<polygon id="SVGID_00000125589091242117480860000001443511387823255693_" points="140,0 136.6,0 131.8,0 0,0 0,120 131.8,120        136.6,120 140,120      "/>
				</defs>
				<clipPath id="SVGID_00000176765065805603332660000012711646203762451879_">
					<use xlink:href="#SVGID_00000125589091242117480860000001443511387823255693_" style="overflow:visible;"/>
				</clipPath>
				<g style="clip-path:url(#SVGID_00000176765065805603332660000012711646203762451879_);">
					<text transform="matrix(1 0 0 1 37.8423 99.2251)" class="st1 st2 st4">A</text>
				</g>
			</g>
		</g>
	</g>
</g>
</svg>