<svg width="214" height="34" viewBox="0 0 214 34" fill="none" xmlns="http://www.w3.org/2000/svg">
<path d="M29.2949 0H34.478V31.9998H29.2949V0Z" fill="white"/>
<path d="M52.5076 21.8581C52.5076 26.8158 48.4513 27.2665 47.0992 27.2665C43.9443 27.2665 43.4936 24.337 43.4936 22.7595V10.3652H38.3105V22.5342C38.3105 25.4637 39.2119 28.1679 41.0148 29.7454C42.5922 31.3228 44.6204 31.9989 47.0992 31.9989C48.902 31.9989 51.1555 31.5482 52.5076 30.1961V31.9989H57.6907V10.3652H52.5076V21.8581Z" fill="white"/>
<path d="M67.8304 2.47852H62.6474V10.3658H58.8164V15.3235H62.6474V31.9994H67.8304V15.3235H71.6614V10.3658H67.8304V2.47852Z" fill="white"/>
<path d="M87.8863 25.4652C86.7596 26.3666 85.1821 27.0427 83.6047 27.0427C79.9991 27.0427 77.5202 24.3385 77.5202 20.7328C77.5202 17.1272 79.9991 14.6484 83.6047 14.6484C85.1821 14.6484 86.7596 15.0991 87.8863 16.2258L88.5624 16.9019L92.168 13.5216L91.2666 12.8456C89.2385 11.0428 86.5342 9.91602 83.6047 9.91602C77.2949 9.91602 72.5625 14.6484 72.5625 20.9582C72.5625 27.268 77.2949 32.0004 83.6047 32.0004C86.5342 32.0004 89.2385 30.8736 91.2666 29.0708L92.168 28.3948L88.5624 24.7892L87.8863 25.4652Z" fill="white"/>
<path d="M110.421 12.1689C108.844 10.5915 107.266 9.91543 104.787 9.91543C102.984 9.91543 101.182 10.3661 99.8295 11.7182V0H94.6465V31.9998H99.8295V20.0562C99.8295 15.0985 103.21 14.6478 104.562 14.6478C107.717 14.6478 107.491 17.5774 107.491 19.1548V31.7744H112.675V19.3802C112.675 16.4506 111.998 13.7464 110.421 12.1689Z" fill="white"/>
<path d="M22.0844 24.1133C20.2816 25.9161 17.5774 27.0429 14.6478 27.0429C9.01403 27.0429 4.95771 22.5359 4.95771 16.4514C4.95771 10.3669 9.01402 5.85991 14.8731 5.85991C17.5773 5.85991 20.2816 6.98666 22.3097 9.01482L22.9858 9.69087L26.366 6.31061L25.69 5.63456C22.7604 2.705 18.9295 1.12754 14.8731 1.12754C6.30982 0.902193 0 7.66271 0 16.4514C0 25.2401 6.30982 32.0006 14.6478 32.0006C18.7041 32.0006 22.7604 30.4231 25.4646 27.4936L26.1407 26.8175L22.7604 23.4373L22.0844 24.1133Z" fill="white"/>
<path d="M83.3791 24.5647C85.3704 24.5647 86.9847 22.9505 86.9847 20.9591C86.9847 18.9678 85.3704 17.3535 83.3791 17.3535C81.3877 17.3535 79.7734 18.9678 79.7734 20.9591C79.7734 22.9505 81.3877 24.5647 83.3791 24.5647Z" fill="#EF4335"/>
<path d="M135.129 0.0990999C135.204 -0.0330328 135.394 -0.0330335 135.468 0.0990992L137.418 3.55802C137.446 3.60731 137.494 3.64208 137.549 3.65327L141.441 4.43858C141.59 4.46858 141.649 4.64954 141.546 4.7612L138.859 7.68424C138.821 7.7259 138.802 7.78215 138.809 7.83836L139.265 11.7826C139.282 11.9333 139.128 12.0451 138.99 11.982L135.38 10.3296C135.328 10.3061 135.269 10.3061 135.218 10.3296L131.607 11.982C131.469 12.0451 131.316 11.9333 131.333 11.7826L131.789 7.83836C131.795 7.78215 131.777 7.7259 131.739 7.68424L129.052 4.7612C128.949 4.64954 129.008 4.46858 129.156 4.43858L133.048 3.65327C133.104 3.64208 133.152 3.60731 133.18 3.55802L135.129 0.0990999Z" fill="#FDDD0A"/>
<path d="M153.129 0.0990999C153.204 -0.0330328 153.394 -0.0330335 153.468 0.0990992L155.418 3.55802C155.446 3.60731 155.494 3.64208 155.549 3.65327L159.441 4.43858C159.59 4.46858 159.649 4.64954 159.546 4.7612L156.859 7.68424C156.821 7.7259 156.802 7.78215 156.809 7.83836L157.265 11.7826C157.282 11.9333 157.128 12.0451 156.99 11.982L153.38 10.3296C153.328 10.3061 153.269 10.3061 153.218 10.3296L149.607 11.982C149.469 12.0451 149.316 11.9333 149.333 11.7826L149.789 7.83836C149.795 7.78215 149.777 7.7259 149.739 7.68424L147.052 4.7612C146.949 4.64954 147.008 4.46858 147.156 4.43858L151.048 3.65327C151.104 3.64208 151.152 3.60731 151.18 3.55802L153.129 0.0990999Z" fill="#FDDD0A"/>
<path d="M171.129 0.0990999C171.204 -0.0330328 171.394 -0.0330335 171.468 0.0990992L173.418 3.55802C173.446 3.60731 173.494 3.64208 173.549 3.65327L177.441 4.43858C177.59 4.46858 177.649 4.64954 177.546 4.7612L174.859 7.68424C174.821 7.7259 174.802 7.78215 174.809 7.83836L175.265 11.7826C175.282 11.9333 175.128 12.0451 174.99 11.982L171.38 10.3296C171.328 10.3061 171.269 10.3061 171.218 10.3296L167.607 11.982C167.469 12.0451 167.316 11.9333 167.333 11.7826L167.789 7.83836C167.795 7.78215 167.777 7.7259 167.739 7.68424L165.052 4.7612C164.949 4.64954 165.008 4.46858 165.156 4.43858L169.048 3.65327C169.104 3.64208 169.152 3.60731 169.18 3.55802L171.129 0.0990999Z" fill="#FDDD0A"/>
<path d="M129.504 32V30.936L132.962 27.408C133.886 26.484 134.348 25.6907 134.348 25.028C134.348 24.4773 134.18 24.048 133.844 23.74C133.508 23.432 133.097 23.278 132.612 23.278C131.688 23.278 131.016 23.7167 130.596 24.594L129.504 23.95C129.812 23.3153 130.237 22.8347 130.778 22.508C131.329 22.1813 131.935 22.018 132.598 22.018C133.419 22.018 134.133 22.2887 134.74 22.83C135.347 23.3713 135.65 24.0993 135.65 25.014C135.65 26.0033 135.067 27.0813 133.9 28.248L131.394 30.74H135.832V32H129.504ZM143.442 30.796C142.779 31.72 141.851 32.182 140.656 32.182C139.461 32.182 138.533 31.72 137.87 30.796C137.207 29.872 136.876 28.64 136.876 27.1C136.876 25.56 137.207 24.328 137.87 23.404C138.533 22.48 139.461 22.018 140.656 22.018C141.851 22.018 142.779 22.48 143.442 23.404C144.105 24.328 144.436 25.56 144.436 27.1C144.436 28.64 144.105 29.872 143.442 30.796ZM138.822 29.914C139.251 30.5767 139.863 30.908 140.656 30.908C141.449 30.908 142.061 30.5767 142.49 29.914C142.929 29.2513 143.148 28.3133 143.148 27.1C143.148 25.8867 142.929 24.9487 142.49 24.286C142.061 23.614 141.449 23.278 140.656 23.278C139.863 23.278 139.251 23.6093 138.822 24.272C138.393 24.9347 138.178 25.8773 138.178 27.1C138.178 28.3133 138.393 29.2513 138.822 29.914ZM146.335 32.154C146.083 32.154 145.868 32.0653 145.691 31.888C145.513 31.7107 145.425 31.496 145.425 31.244C145.425 30.992 145.513 30.7773 145.691 30.6C145.868 30.4227 146.083 30.334 146.335 30.334C146.596 30.334 146.811 30.4227 146.979 30.6C147.156 30.7773 147.245 30.992 147.245 31.244C147.245 31.496 147.156 31.7107 146.979 31.888C146.811 32.0653 146.596 32.154 146.335 32.154ZM150.817 22.2H151.937V32H150.649V23.6L148.563 24.216L148.241 23.096L150.817 22.2ZM153.539 32V30.936L156.997 27.408C157.921 26.484 158.383 25.6907 158.383 25.028C158.383 24.4773 158.215 24.048 157.879 23.74C157.543 23.432 157.132 23.278 156.647 23.278C155.723 23.278 155.051 23.7167 154.631 24.594L153.539 23.95C153.847 23.3153 154.272 22.8347 154.813 22.508C155.364 22.1813 155.97 22.018 156.633 22.018C157.454 22.018 158.168 22.2887 158.775 22.83C159.382 23.3713 159.685 24.0993 159.685 25.014C159.685 26.0033 159.102 27.0813 157.935 28.248L155.429 30.74H159.867V32H153.539ZM162.112 32.154C161.86 32.154 161.645 32.0653 161.468 31.888C161.291 31.7107 161.202 31.496 161.202 31.244C161.202 30.992 161.291 30.7773 161.468 30.6C161.645 30.4227 161.86 30.334 162.112 30.334C162.373 30.334 162.588 30.4227 162.756 30.6C162.933 30.7773 163.022 30.992 163.022 31.244C163.022 31.496 162.933 31.7107 162.756 31.888C162.588 32.0653 162.373 32.154 162.112 32.154ZM164.326 32V30.936L167.784 27.408C168.708 26.484 169.17 25.6907 169.17 25.028C169.17 24.4773 169.002 24.048 168.666 23.74C168.33 23.432 167.92 23.278 167.434 23.278C166.51 23.278 165.838 23.7167 165.418 24.594L164.326 23.95C164.634 23.3153 165.059 22.8347 165.6 22.508C166.151 22.1813 166.758 22.018 167.42 22.018C168.242 22.018 168.956 22.2887 169.562 22.83C170.169 23.3713 170.472 24.0993 170.472 25.014C170.472 26.0033 169.889 27.0813 168.722 28.248L166.216 30.74H170.654V32H164.326ZM178.264 30.796C177.602 31.72 176.673 32.182 175.478 32.182C174.284 32.182 173.355 31.72 172.692 30.796C172.03 29.872 171.698 28.64 171.698 27.1C171.698 25.56 172.03 24.328 172.692 23.404C173.355 22.48 174.284 22.018 175.478 22.018C176.673 22.018 177.602 22.48 178.264 23.404C178.927 24.328 179.258 25.56 179.258 27.1C179.258 28.64 178.927 29.872 178.264 30.796ZM173.644 29.914C174.074 30.5767 174.685 30.908 175.478 30.908C176.272 30.908 176.883 30.5767 177.312 29.914C177.751 29.2513 177.97 28.3133 177.97 27.1C177.97 25.8867 177.751 24.9487 177.312 24.286C176.883 23.614 176.272 23.278 175.478 23.278C174.685 23.278 174.074 23.6093 173.644 24.272C173.215 24.9347 173 25.8773 173 27.1C173 28.3133 173.215 29.2513 173.644 29.914ZM180.213 32V30.936L183.671 27.408C184.595 26.484 185.057 25.6907 185.057 25.028C185.057 24.4773 184.889 24.048 184.553 23.74C184.217 23.432 183.806 23.278 183.321 23.278C182.397 23.278 181.725 23.7167 181.305 24.594L180.213 23.95C180.521 23.3153 180.946 22.8347 181.487 22.508C182.038 22.1813 182.644 22.018 183.307 22.018C184.128 22.018 184.842 22.2887 185.449 22.83C186.056 23.3713 186.359 24.0993 186.359 25.014C186.359 26.0033 185.776 27.0813 184.609 28.248L182.103 30.74H186.541V32H180.213ZM194.151 30.796C193.488 31.72 192.56 32.182 191.365 32.182C190.17 32.182 189.242 31.72 188.579 30.796C187.916 29.872 187.585 28.64 187.585 27.1C187.585 25.56 187.916 24.328 188.579 23.404C189.242 22.48 190.17 22.018 191.365 22.018C192.56 22.018 193.488 22.48 194.151 23.404C194.814 24.328 195.145 25.56 195.145 27.1C195.145 28.64 194.814 29.872 194.151 30.796ZM189.531 29.914C189.96 30.5767 190.572 30.908 191.365 30.908C192.158 30.908 192.77 30.5767 193.199 29.914C193.638 29.2513 193.857 28.3133 193.857 27.1C193.857 25.8867 193.638 24.9487 193.199 24.286C192.77 23.614 192.158 23.278 191.365 23.278C190.572 23.278 189.96 23.6093 189.531 24.272C189.102 24.9347 188.887 25.8773 188.887 27.1C188.887 28.3133 189.102 29.2513 189.531 29.914Z" fill="#B6B6B6"/>
<path d="M189.129 0.0990999C189.204 -0.0330328 189.394 -0.0330335 189.468 0.0990992L191.418 3.55802C191.446 3.60731 191.494 3.64208 191.549 3.65327L195.441 4.43858C195.59 4.46858 195.649 4.64954 195.546 4.7612L192.859 7.68424C192.821 7.7259 192.802 7.78215 192.809 7.83836L193.265 11.7826C193.282 11.9333 193.128 12.0451 192.99 11.982L189.38 10.3296C189.328 10.3061 189.269 10.3061 189.218 10.3296L185.607 11.982C185.469 12.0451 185.316 11.9333 185.333 11.7826L185.789 7.83836C185.795 7.78215 185.777 7.7259 185.739 7.68424L183.052 4.7612C182.949 4.64954 183.008 4.46858 183.156 4.43858L187.048 3.65327C187.104 3.64208 187.152 3.60731 187.18 3.55802L189.129 0.0990999Z" fill="#FDDD0A"/>
<path d="M207.129 0.0990999C207.204 -0.0330328 207.394 -0.0330335 207.468 0.0990992L209.418 3.55802C209.446 3.60731 209.494 3.64208 209.549 3.65327L213.441 4.43858C213.59 4.46858 213.649 4.64954 213.546 4.7612L210.859 7.68424C210.821 7.7259 210.802 7.78215 210.809 7.83836L211.265 11.7826C211.282 11.9333 211.128 12.0451 210.99 11.982L207.38 10.3296C207.328 10.3061 207.269 10.3061 207.218 10.3296L203.607 11.982C203.469 12.0451 203.316 11.9333 203.333 11.7826L203.789 7.83836C203.795 7.78215 203.777 7.7259 203.739 7.68424L201.052 4.7612C200.949 4.64954 201.008 4.46858 201.156 4.43858L205.048 3.65327C205.104 3.64208 205.152 3.60731 205.18 3.55802L207.129 0.0990999Z" fill="#FDDD0A"/>
</svg>
