<svg width="214" height="34" viewBox="0 0 214 34" fill="none" xmlns="http://www.w3.org/2000/svg">
<path d="M29.2956 0H34.4787V31.9998H29.2956V0Z" fill="#1A1A1A"/>
<path d="M52.5067 21.8585C52.5067 26.8162 48.4504 27.2669 47.0983 27.2669C43.9434 27.2669 43.4927 24.3373 43.4927 22.7599V10.3656H38.3096V22.5345C38.3096 25.4641 39.211 28.1683 41.0138 29.7458C42.5913 31.3232 44.6194 31.9993 47.0983 31.9993C48.9011 31.9993 51.1546 31.5486 52.5067 30.1965V31.9993H57.6898V10.3656H52.5067V21.8585Z" fill="#1A1A1A"/>
<path d="M67.8306 2.47815H62.6475V10.3654H58.8165V15.3231H62.6475V31.9991H67.8306V15.3231H71.6615V10.3654H67.8306V2.47815Z" fill="#1A1A1A"/>
<path d="M87.8867 25.4647C86.76 26.3661 85.1825 27.0422 83.6051 27.0422C79.9994 27.0422 77.5206 24.338 77.5206 20.7324C77.5206 17.1267 79.9994 14.6479 83.6051 14.6479C85.1825 14.6479 86.76 15.0986 87.8867 16.2253L88.5628 16.9014L92.1684 13.5211L91.267 12.8451C89.2388 11.0423 86.5346 9.91553 83.6051 9.91553C77.2952 9.91553 72.5629 14.6479 72.5629 20.9577C72.5629 27.2675 77.2952 31.9999 83.6051 31.9999C86.5346 31.9999 89.2388 30.8731 91.267 29.0703L92.1684 28.3943L88.5628 24.7887L87.8867 25.4647Z" fill="#1A1A1A"/>
<path d="M110.422 12.1689C108.844 10.5915 107.267 9.91543 104.788 9.91543C102.985 9.91543 101.182 10.3661 99.8303 11.7182V0H94.6472V31.9998H99.8303V20.0562C99.8303 15.0985 103.211 14.6478 104.563 14.6478C107.718 14.6478 107.492 17.5774 107.492 19.1548V31.7744H112.675V19.3802C112.675 16.4506 111.999 13.7464 110.422 12.1689Z" fill="#1A1A1A"/>
<path d="M22.0844 24.1131C20.2816 25.9159 17.5774 27.0426 14.6478 27.0426C9.01403 27.0426 4.95771 22.5356 4.95771 16.4511C4.95771 10.3667 9.01402 5.85967 14.8731 5.85967C17.5773 5.85967 20.2816 6.98642 22.3097 9.01457L22.9858 9.69063L26.366 6.31037L25.69 5.63431C22.7604 2.70475 18.9295 1.1273 14.8731 1.1273C6.30982 0.901949 0 7.66247 0 16.4511C0 25.2398 6.30982 32.0003 14.6478 32.0003C18.7041 32.0003 22.7604 30.4229 25.4646 27.4933L26.1407 26.8173L22.7604 23.437L22.0844 24.1131Z" fill="#1A1A1A"/>
<path d="M83.3797 24.5643C85.371 24.5643 86.9853 22.95 86.9853 20.9586C86.9853 18.9673 85.371 17.353 83.3797 17.353C81.3883 17.353 79.774 18.9673 79.774 20.9586C79.774 22.95 81.3883 24.5643 83.3797 24.5643Z" fill="#EF4335"/>
<path d="M135.129 0.0990999C135.204 -0.0330328 135.394 -0.0330335 135.468 0.0990992L137.418 3.55802C137.446 3.60731 137.494 3.64208 137.549 3.65327L141.441 4.43858C141.59 4.46858 141.649 4.64954 141.546 4.7612L138.859 7.68424C138.821 7.7259 138.802 7.78215 138.809 7.83836L139.265 11.7826C139.282 11.9333 139.128 12.0451 138.99 11.982L135.38 10.3296C135.328 10.3061 135.269 10.3061 135.218 10.3296L131.607 11.982C131.469 12.0451 131.316 11.9333 131.333 11.7826L131.789 7.83836C131.795 7.78215 131.777 7.7259 131.739 7.68424L129.052 4.7612C128.949 4.64954 129.008 4.46858 129.156 4.43858L133.048 3.65327C133.104 3.64208 133.152 3.60731 133.18 3.55802L135.129 0.0990999Z" fill="#FDDD0A"/>
<path d="M153.129 0.0990999C153.204 -0.0330328 153.394 -0.0330335 153.468 0.0990992L155.418 3.55802C155.446 3.60731 155.494 3.64208 155.549 3.65327L159.441 4.43858C159.59 4.46858 159.649 4.64954 159.546 4.7612L156.859 7.68424C156.821 7.7259 156.802 7.78215 156.809 7.83836L157.265 11.7826C157.282 11.9333 157.128 12.0451 156.99 11.982L153.38 10.3296C153.328 10.3061 153.269 10.3061 153.218 10.3296L149.607 11.982C149.469 12.0451 149.316 11.9333 149.333 11.7826L149.789 7.83836C149.795 7.78215 149.777 7.7259 149.739 7.68424L147.052 4.7612C146.949 4.64954 147.008 4.46858 147.156 4.43858L151.048 3.65327C151.104 3.64208 151.152 3.60731 151.18 3.55802L153.129 0.0990999Z" fill="#FDDD0A"/>
<path d="M171.129 0.0990999C171.204 -0.0330328 171.394 -0.0330335 171.468 0.0990992L173.418 3.55802C173.446 3.60731 173.494 3.64208 173.549 3.65327L177.441 4.43858C177.59 4.46858 177.649 4.64954 177.546 4.7612L174.859 7.68424C174.821 7.7259 174.802 7.78215 174.809 7.83836L175.265 11.7826C175.282 11.9333 175.128 12.0451 174.99 11.982L171.38 10.3296C171.328 10.3061 171.269 10.3061 171.218 10.3296L167.607 11.982C167.469 12.0451 167.316 11.9333 167.333 11.7826L167.789 7.83836C167.795 7.78215 167.777 7.7259 167.739 7.68424L165.052 4.7612C164.949 4.64954 165.008 4.46858 165.156 4.43858L169.048 3.65327C169.104 3.64208 169.152 3.60731 169.18 3.55802L171.129 0.0990999Z" fill="#FDDD0A"/>
<path d="M131.772 22.2H132.892V32H131.604V23.6L129.518 24.216L129.196 23.096L131.772 22.2ZM141.186 30.796C140.524 31.72 139.595 32.182 138.4 32.182C137.206 32.182 136.277 31.72 135.614 30.796C134.952 29.872 134.62 28.64 134.62 27.1C134.62 25.56 134.952 24.328 135.614 23.404C136.277 22.48 137.206 22.018 138.4 22.018C139.595 22.018 140.524 22.48 141.186 23.404C141.849 24.328 142.18 25.56 142.18 27.1C142.18 28.64 141.849 29.872 141.186 30.796ZM136.566 29.914C136.996 30.5767 137.607 30.908 138.4 30.908C139.194 30.908 139.805 30.5767 140.234 29.914C140.673 29.2513 140.892 28.3133 140.892 27.1C140.892 25.8867 140.673 24.9487 140.234 24.286C139.805 23.614 139.194 23.278 138.4 23.278C137.607 23.278 136.996 23.6093 136.566 24.272C136.137 24.9347 135.922 25.8773 135.922 27.1C135.922 28.3133 136.137 29.2513 136.566 29.914ZM153.169 32L150.971 28.248H148.661V32H147.359V22.2H151.279C152.119 22.2 152.837 22.4987 153.435 23.096C154.032 23.684 154.331 24.398 154.331 25.238C154.331 25.8727 154.139 26.4513 153.757 26.974C153.383 27.4967 152.898 27.8653 152.301 28.08L154.611 32H153.169ZM148.661 23.418V27.072H151.279C151.764 27.072 152.175 26.8947 152.511 26.54C152.856 26.176 153.029 25.742 153.029 25.238C153.029 24.734 152.856 24.3047 152.511 23.95C152.175 23.5953 151.764 23.418 151.279 23.418H148.661ZM156.29 29.06C156.411 29.6853 156.696 30.1707 157.144 30.516C157.601 30.8613 158.161 31.034 158.824 31.034C159.748 31.034 160.42 30.6933 160.84 30.012L161.876 30.6C161.194 31.6547 160.168 32.182 158.796 32.182C157.685 32.182 156.78 31.8367 156.08 31.146C155.389 30.446 155.044 29.564 155.044 28.5C155.044 27.4453 155.384 26.568 156.066 25.868C156.747 25.168 157.629 24.818 158.712 24.818C159.738 24.818 160.574 25.182 161.218 25.91C161.871 26.6287 162.198 27.4967 162.198 28.514C162.198 28.6913 162.184 28.8733 162.156 29.06H156.29ZM158.712 25.966C158.058 25.966 157.517 26.1527 157.088 26.526C156.658 26.89 156.392 27.38 156.29 27.996H160.966C160.863 27.3333 160.602 26.8293 160.182 26.484C159.762 26.1387 159.272 25.966 158.712 25.966ZM168.224 25H169.54L166.74 32H165.312L162.512 25H163.828L166.026 30.698L168.224 25ZM171.186 23.726C170.953 23.726 170.757 23.6467 170.598 23.488C170.44 23.3293 170.36 23.138 170.36 22.914C170.36 22.69 170.44 22.4987 170.598 22.34C170.757 22.172 170.953 22.088 171.186 22.088C171.41 22.088 171.602 22.172 171.76 22.34C171.919 22.4987 171.998 22.69 171.998 22.914C171.998 23.138 171.919 23.3293 171.76 23.488C171.602 23.6467 171.41 23.726 171.186 23.726ZM170.57 32V25H171.788V32H170.57ZM174.501 29.06C174.622 29.6853 174.907 30.1707 175.355 30.516C175.812 30.8613 176.372 31.034 177.035 31.034C177.959 31.034 178.631 30.6933 179.051 30.012L180.087 30.6C179.405 31.6547 178.379 32.182 177.007 32.182C175.896 32.182 174.991 31.8367 174.291 31.146C173.6 30.446 173.255 29.564 173.255 28.5C173.255 27.4453 173.595 26.568 174.277 25.868C174.958 25.168 175.84 24.818 176.923 24.818C177.949 24.818 178.785 25.182 179.429 25.91C180.082 26.6287 180.409 27.4967 180.409 28.514C180.409 28.6913 180.395 28.8733 180.367 29.06H174.501ZM176.923 25.966C176.269 25.966 175.728 26.1527 175.299 26.526C174.869 26.89 174.603 27.38 174.501 27.996H179.177C179.074 27.3333 178.813 26.8293 178.393 26.484C177.973 26.1387 177.483 25.966 176.923 25.966ZM189.781 25H191.055L188.885 32H187.639L186.001 26.82L184.363 32H183.117L180.947 25H182.221L183.761 30.32L185.413 25H186.589L188.241 30.334L189.781 25ZM192.921 26.89C192.921 27.1607 193.057 27.38 193.327 27.548C193.598 27.7067 193.925 27.8373 194.307 27.94C194.69 28.0333 195.073 28.1453 195.455 28.276C195.838 28.3973 196.165 28.612 196.435 28.92C196.706 29.2187 196.841 29.606 196.841 30.082C196.841 30.7167 196.594 31.2253 196.099 31.608C195.614 31.9907 194.989 32.182 194.223 32.182C193.542 32.182 192.959 32.0327 192.473 31.734C191.988 31.4353 191.643 31.0387 191.437 30.544L192.487 29.942C192.599 30.278 192.809 30.544 193.117 30.74C193.425 30.936 193.794 31.034 194.223 31.034C194.625 31.034 194.956 30.9593 195.217 30.81C195.479 30.6513 195.609 30.4087 195.609 30.082C195.609 29.8113 195.474 29.5967 195.203 29.438C194.933 29.27 194.606 29.1393 194.223 29.046C193.841 28.9433 193.458 28.8267 193.075 28.696C192.693 28.5653 192.366 28.3507 192.095 28.052C191.825 27.7533 191.689 27.3707 191.689 26.904C191.689 26.2973 191.923 25.798 192.389 25.406C192.865 25.014 193.458 24.818 194.167 24.818C194.737 24.818 195.241 24.9487 195.679 25.21C196.127 25.462 196.463 25.8167 196.687 26.274L195.665 26.848C195.413 26.2507 194.914 25.952 194.167 25.952C193.822 25.952 193.528 26.036 193.285 26.204C193.043 26.3627 192.921 26.5913 192.921 26.89Z" fill="#1A1A1A"/>
<path d="M189.129 0.0990999C189.204 -0.0330328 189.394 -0.0330335 189.468 0.0990992L191.418 3.55802C191.446 3.60731 191.494 3.64208 191.549 3.65327L195.441 4.43858C195.59 4.46858 195.649 4.64954 195.546 4.7612L192.859 7.68424C192.821 7.7259 192.802 7.78215 192.809 7.83836L193.265 11.7826C193.282 11.9333 193.128 12.0451 192.99 11.982L189.38 10.3296C189.328 10.3061 189.269 10.3061 189.218 10.3296L185.607 11.982C185.469 12.0451 185.316 11.9333 185.333 11.7826L185.789 7.83836C185.795 7.78215 185.777 7.7259 185.739 7.68424L183.052 4.7612C182.949 4.64954 183.008 4.46858 183.156 4.43858L187.048 3.65327C187.104 3.64208 187.152 3.60731 187.18 3.55802L189.129 0.0990999Z" fill="#FDDD0A"/>
<path d="M207.129 0.0990999C207.204 -0.0330328 207.394 -0.0330335 207.468 0.0990992L209.418 3.55802C209.446 3.60731 209.494 3.64208 209.549 3.65327L213.441 4.43858C213.59 4.46858 213.649 4.64954 213.546 4.7612L210.859 7.68424C210.821 7.7259 210.802 7.78215 210.809 7.83836L211.265 11.7826C211.282 11.9333 211.128 12.0451 210.99 11.982L207.38 10.3296C207.328 10.3061 207.269 10.3061 207.218 10.3296L203.607 11.982C203.469 12.0451 203.316 11.9333 203.333 11.7826L203.789 7.83836C203.795 7.78215 203.777 7.7259 203.739 7.68424L201.052 4.7612C200.949 4.64954 201.008 4.46858 201.156 4.43858L205.048 3.65327C205.104 3.64208 205.152 3.60731 205.18 3.55802L207.129 0.0990999Z" fill="#FDDD0A"/>
</svg>
