<svg width="161" height="162" viewBox="0 0 161 162" fill="none" xmlns="http://www.w3.org/2000/svg">
<path d="M21.6287 129.018L52.4132 160.5L94.6228 148.734M21.6287 129.018L32.4192 86.724M21.6287 129.018L63.521 118.206M32.4192 86.724L74.9461 74.958M32.4192 86.724L0.999995 55.242M74.9461 74.958L63.521 118.206M74.9461 74.958L106.365 106.44M74.9461 74.958L86.3712 32.346M74.9461 74.958L43.5269 44.43M74.9461 74.958L117.79 63.828M63.521 118.206L94.6228 148.734M94.6228 148.734L106.365 106.44M106.365 106.44L148.575 94.992M86.3712 32.346L55.2695 1.5M86.3712 32.346L128.898 21.216M55.2695 1.5L43.5269 44.43M55.2695 1.5L13.0599 12.948L0.999995 55.242M43.5269 44.43L0.999995 55.242M128.898 21.216L117.79 63.828M128.898 21.216L160 52.698L148.575 94.992M117.79 63.828L148.575 94.992" stroke="#FDDD0A" stroke-width="1.5" stroke-linecap="round" stroke-linejoin="round"/>
</svg>
