<svg width="646" height="940" viewBox="0 0 646 940" fill="none" xmlns="http://www.w3.org/2000/svg">
<path d="M504.792 470.452L504.101 471.321C455.811 532.038 430.44 563.938 413.815 594.865C397.101 625.957 389.231 656.055 375.763 713.385C362.35 770.476 308.551 810.967 248.166 821.779C187.803 832.587 120.982 813.71 81.5642 752.205C61.7561 721.298 35.9589 694.838 9.18837 669.539C2.20122 662.935 -4.85077 656.413 -11.8803 649.911C-31.7982 631.487 -51.5357 613.231 -69.1069 593.787C-92.8708 567.491 -112.634 539.063 -123.456 505.206C-134.276 471.356 -136.17 432.041 -124.139 383.954C-112.102 335.842 -95.2871 304.261 -73.5745 282.598C-51.8634 260.937 -25.2096 249.147 6.59904 240.701C27.3933 235.179 50.3505 231.095 75.55 226.612C88.9274 224.233 102.937 221.74 117.59 218.861C159.822 210.562 207.327 199.059 260.25 177.782C313.031 156.563 360.763 156.62 401.154 170.525C441.551 184.431 474.639 212.201 498.101 246.459C545.044 315.004 553.367 409.376 504.792 470.452Z" stroke="#212121"/>
<path d="M491.789 470.412L491.124 471.248C444.807 529.484 420.47 560.084 404.523 589.75C388.49 619.576 380.941 648.448 368.022 703.438C355.159 758.189 303.564 797.023 245.649 807.392C187.756 817.758 123.672 799.654 85.8678 740.667C66.8667 711.019 42.1209 685.638 16.4427 661.371C9.74027 655.037 2.97581 648.78 -3.76702 642.543C-22.8717 624.872 -41.8026 607.362 -58.656 588.712C-81.4489 563.491 -100.403 536.225 -110.782 503.754C-121.16 471.289 -122.977 433.584 -111.437 387.462C-99.8918 341.316 -83.7649 311.027 -62.9419 290.252C-42.1205 269.478 -16.5584 258.171 13.9503 250.07C33.895 244.774 55.9138 240.857 80.0842 236.557C92.9158 234.275 106.354 231.884 120.41 229.122C160.919 221.162 206.486 210.128 257.251 189.719C307.874 169.368 353.652 169.423 392.39 182.758C431.134 196.095 462.868 222.728 485.37 255.585C530.394 321.328 538.374 411.838 491.789 470.412Z" stroke="#212121"/>
<path d="M477.985 470.368L477.349 471.167C433.126 526.771 409.887 555.989 394.659 584.317C379.349 612.799 372.14 640.369 359.805 692.874C347.526 745.14 298.271 782.215 242.979 792.115C187.709 802.011 126.53 784.727 90.4399 728.414C72.2958 700.104 48.6664 675.868 24.148 652.697C17.7478 646.648 11.2886 640.674 4.85014 634.718C-13.391 617.846 -31.4654 601.128 -47.5565 583.322C-69.3184 559.241 -87.414 533.211 -97.323 502.211C-107.23 471.217 -108.965 435.219 -97.9481 391.185C-86.9246 347.126 -71.5279 318.21 -51.6495 298.377C-31.7728 278.546 -7.36982 267.751 21.7585 260.017C40.8012 254.96 61.8235 251.221 84.9012 247.115C97.1533 244.936 109.985 242.653 123.407 240.015C162.086 232.415 205.597 221.879 254.07 202.391C302.4 182.961 346.105 183.014 383.087 195.745C420.075 208.478 450.372 233.904 471.855 265.273C514.841 328.041 522.458 414.45 477.985 470.368Z" stroke="#212121"/>
<path d="M463.613 470.322L463.005 471.087C420.963 523.948 398.868 551.728 384.39 578.663C369.832 605.744 362.978 631.96 351.25 681.878C339.579 731.557 292.76 766.8 240.199 776.211C187.659 785.619 129.504 769.188 95.1987 715.66C77.9466 688.741 55.4793 665.697 32.1684 643.667C26.0833 637.917 19.9423 632.236 13.8211 626.575C-3.52155 610.533 -20.7047 594.639 -36.0026 577.711C-56.6912 554.818 -73.8931 530.073 -83.3125 500.604C-92.7299 471.142 -94.3799 436.922 -83.9064 395.062C-73.4266 353.176 -58.7899 325.689 -39.895 306.837C-21.0016 287.987 2.19465 277.725 29.886 270.372C47.9898 265.565 67.9748 262.01 89.9149 258.107C101.564 256.035 113.764 253.864 126.526 251.356C163.301 244.13 204.669 234.113 250.757 215.584C296.701 197.114 338.247 197.165 373.401 209.266C408.562 221.37 437.362 245.54 457.784 275.36C498.648 335.029 505.887 417.17 463.613 470.322Z" stroke="#212121"/>
<path d="M449.744 470.277L449.165 471.005C409.226 521.221 388.235 547.615 374.479 573.204C360.647 598.935 354.135 623.843 342.994 671.266C331.909 718.449 287.441 751.925 237.515 760.864C187.609 769.799 132.373 754.193 99.789 703.351C83.3978 677.775 62.0519 655.882 39.9061 634.953C34.1247 629.489 28.2903 624.093 22.4749 618.713C5.99968 603.474 -10.3231 588.376 -24.8552 572.296C-44.5082 550.549 -60.8475 527.043 -69.7945 499.053C-78.7396 471.069 -80.3072 438.565 -70.3583 398.801C-60.4031 359.011 -46.4999 332.903 -28.5539 314.998C-10.6094 297.095 11.4224 287.348 37.7271 280.363C54.9248 275.797 73.909 272.42 94.7515 268.712C105.818 266.743 117.408 264.681 129.534 262.298C164.471 255.433 203.773 245.916 247.558 228.314C291.201 210.768 330.663 210.817 364.054 222.312C397.45 233.808 424.807 256.766 444.205 285.092C483.022 341.772 489.895 419.793 449.744 470.277Z" stroke="#212121"/>
<path d="M435.334 470.232L434.784 470.923C397.032 518.39 377.187 543.342 364.182 567.535C351.105 591.862 344.948 615.411 334.417 660.24C323.941 704.829 281.916 736.469 234.728 744.918C187.56 753.363 135.357 738.612 104.562 690.562C89.0648 666.382 68.8843 645.684 47.9492 625.899C42.4835 620.734 36.9678 615.632 31.4702 610.547C15.8963 596.142 0.467521 581.871 -13.269 566.67C-31.8458 546.114 -47.2889 523.898 -55.745 497.443C-64.1991 470.994 -65.6812 440.273 -56.2775 402.688C-46.8675 365.078 -33.7264 340.402 -16.7664 323.481C0.191997 306.562 21.0138 297.349 45.8776 290.747C62.1338 286.431 80.0778 283.239 99.7796 279.734C110.241 277.873 121.198 275.923 132.662 273.671C165.689 267.181 202.844 258.184 244.237 241.543C285.487 224.959 322.785 225.006 354.342 235.87C385.907 246.735 411.762 268.434 430.097 295.206C466.787 348.78 473.28 422.521 435.334 470.232Z" stroke="#212121"/>
<path d="M421.786 470.187L421.264 470.845C385.567 515.727 366.8 539.323 354.502 562.202C342.134 585.21 336.311 607.482 326.352 649.872C316.45 692.023 276.722 721.936 232.107 729.924C187.513 737.909 138.161 723.963 109.048 678.537C94.392 655.669 75.3071 636.095 55.5102 617.386C50.3413 612.501 45.1253 607.676 39.9266 602.868C25.1999 589.246 10.6116 575.752 -2.37705 561.38C-19.942 541.943 -34.5426 520.938 -42.5372 495.927C-50.5298 470.923 -51.9314 441.877 -43.0402 406.341C-34.1427 370.779 -21.7181 347.451 -5.68514 331.454C10.3462 315.46 30.0304 306.75 53.5396 300.508C68.9106 296.426 85.8767 293.408 104.506 290.094C114.399 288.334 124.761 286.491 135.602 284.36C166.834 278.223 201.97 269.715 241.114 253.979C280.115 238.299 315.377 238.344 345.212 248.614C375.053 258.887 399.498 279.401 416.833 304.713C451.523 355.367 457.659 425.084 421.786 470.187Z" stroke="#212121"/>
<path d="M409.012 470.146L408.515 470.771C374.757 513.216 357.006 535.535 345.373 557.175C333.674 578.939 328.167 600.007 318.748 640.097C309.386 679.949 271.823 708.234 229.635 715.788C187.468 723.338 140.805 710.151 113.277 667.199C99.4143 645.568 81.3623 627.054 62.6387 609.359C57.7495 604.739 52.8161 600.176 47.8991 595.627C33.9713 582.745 20.1754 569.984 7.89212 556.392C-8.71889 538.011 -22.525 518.148 -30.0844 494.499C-37.6418 470.856 -38.9676 443.391 -30.5597 409.785C-22.1454 376.155 -10.3964 354.097 4.76246 338.973C19.9197 323.85 38.5313 315.615 60.7632 309.711C75.2996 305.852 91.3438 302.997 108.962 299.863C118.319 298.199 128.119 296.455 138.374 294.44C167.913 288.636 201.145 280.589 238.168 265.704C275.049 250.878 308.392 250.92 336.603 260.631C364.819 270.345 387.934 289.742 404.326 313.678C437.13 361.578 442.929 427.5 409.012 470.146Z" stroke="#212121"/>
<path d="M397.37 470.111L396.898 470.705C364.906 510.93 348.081 532.085 337.055 552.596C325.965 573.226 320.745 593.197 311.818 631.192C302.948 668.948 267.359 695.75 227.383 702.907C187.427 710.061 143.214 697.566 117.132 656.869C103.991 636.366 86.8806 618.817 69.1351 602.047C64.501 597.667 59.8251 593.342 55.1648 589.032C41.9651 576.822 28.8914 564.73 17.2507 551.849C1.50908 534.43 -11.573 515.608 -18.7359 493.199C-25.8968 470.797 -27.1534 444.772 -19.1858 412.927C-11.212 381.057 -0.0786233 360.156 14.2837 345.827C28.6443 331.499 46.2785 323.695 67.3464 318.101C81.1222 314.443 96.3261 311.739 113.023 308.768C121.891 307.191 131.18 305.538 140.9 303.628C168.897 298.127 200.394 290.5 235.484 276.393C270.432 262.343 302.027 262.384 328.757 271.585C355.493 280.789 377.396 299.169 392.928 321.85C424.014 367.241 429.506 429.705 397.37 470.111Z" stroke="#212121"/>
<path d="M384.492 470.07L384.047 470.63C354.007 508.4 338.207 528.266 327.852 547.529C317.437 566.905 312.534 585.661 304.152 621.338C295.827 656.777 262.42 681.937 224.89 688.657C187.382 695.373 145.878 683.643 121.394 645.44C109.053 626.184 92.9841 609.704 76.3205 593.956C71.9686 589.843 67.5776 585.782 63.2015 581.734C50.807 570.269 38.5319 558.915 27.6021 546.821C12.8222 530.466 0.540956 512.796 -6.18326 491.76C-12.9055 470.729 -14.0857 446.298 -6.60525 416.399C0.881479 386.476 11.3338 366.856 24.8149 353.406C38.2945 339.957 54.8474 332.631 74.6277 327.379C87.5623 323.945 101.837 321.405 117.514 318.616C125.842 317.135 134.565 315.583 143.693 313.789C169.984 308.623 199.562 301.461 232.515 288.213C265.325 275.023 294.985 275.062 320.077 283.7C345.176 292.339 365.738 309.594 380.32 330.887C409.505 373.502 414.658 432.142 384.492 470.07Z" stroke="#212121"/>
<path d="M370.172 470.024L369.754 470.549C341.888 505.586 327.228 524.019 317.619 541.893C307.953 559.875 303.404 577.281 295.628 610.381C287.908 643.242 256.929 666.577 222.12 672.809C187.332 679.038 148.842 668.159 126.136 632.73C114.684 614.861 99.7728 599.569 84.3123 584.958C80.2739 581.141 76.1995 577.373 72.1391 573.617C60.6404 562.981 49.2539 552.449 39.1149 541.229C25.4044 526.058 14.0138 509.669 7.77743 490.159C1.54304 470.654 0.447854 447.994 7.38656 420.261C14.3315 392.504 24.0265 374.307 36.5277 361.835C49.0274 349.364 64.3779 342.569 82.7263 337.697C94.7251 334.511 107.966 332.156 122.51 329.568C130.236 328.194 138.33 326.754 146.801 325.09C171.194 320.296 198.638 313.651 229.213 301.359C259.646 289.124 287.155 289.161 310.426 297.172C333.703 305.185 352.774 321.188 366.299 340.937C393.37 380.465 398.145 434.852 370.172 470.024Z" stroke="#212121"/>
<path d="M356.162 469.978L355.773 470.466C330.032 502.831 316.486 519.863 307.608 536.379C298.676 552.995 294.472 569.08 287.288 599.659C280.16 629.998 251.557 651.548 219.41 657.304C187.283 663.056 151.742 653.009 130.776 620.294C120.193 603.782 106.415 589.652 92.1316 576.153C88.4001 572.627 84.6357 569.145 80.8843 565.675C70.2618 555.85 59.7444 546.121 50.3789 535.758C37.7147 521.744 27.1955 506.608 21.4364 488.591C15.6793 470.58 14.6673 449.653 21.076 424.039C27.4909 398.399 36.4449 381.596 47.9874 370.08C59.5284 358.565 73.7024 352.291 90.65 347.791C101.733 344.848 113.963 342.672 127.398 340.282C134.536 339.012 142.014 337.682 149.842 336.144C172.378 331.716 197.734 325.576 225.984 314.219C254.091 302.919 279.495 302.954 300.984 310.351C322.479 317.751 340.091 332.529 352.582 350.769C377.585 387.277 381.991 437.501 356.162 469.978Z" stroke="#212121"/>
<path d="M342.099 469.933L341.739 470.386C318.132 500.068 305.705 515.693 297.559 530.845C289.363 546.092 285.506 560.852 278.917 588.899C272.384 616.707 246.164 636.465 216.689 641.742C187.234 647.016 154.652 637.804 135.432 607.814C125.722 592.664 113.081 579.7 99.9793 567.318C96.5559 564.083 93.1026 560.889 89.6615 557.706C79.9184 548.694 70.2732 539.772 61.684 530.268C50.07 517.416 40.4254 503.538 35.1453 487.019C29.8672 470.507 28.9387 451.32 34.8154 427.831C40.6984 404.318 48.9087 388.913 59.489 378.357C70.0677 367.803 83.061 362.05 98.6025 357.923C108.767 355.224 119.982 353.229 132.304 351.037C138.851 349.873 145.712 348.652 152.893 347.241C173.566 343.179 196.827 337.546 222.742 327.128C248.514 316.767 271.806 316.8 291.506 323.581C311.213 330.365 327.361 343.914 338.814 360.638C361.741 394.115 365.776 440.163 342.099 469.933Z" stroke="#212121"/>
<path d="M328.037 469.888L327.705 470.306C306.231 497.305 294.923 511.523 287.511 525.312C280.051 539.19 276.541 552.623 270.546 578.139C264.608 603.416 240.772 621.381 213.968 626.181C187.185 630.976 157.563 622.6 140.088 595.333C131.251 581.545 119.747 569.748 107.827 558.483C104.712 555.539 101.569 552.632 98.4383 549.736C89.5747 541.537 80.802 533.423 72.9892 524.778C62.4254 513.088 53.6553 500.467 48.8543 485.447C44.0552 470.434 43.2102 452.986 48.5549 431.624C53.9059 410.237 61.3725 396.231 70.9906 386.635C80.607 377.04 92.4196 371.809 106.555 368.056C115.801 365.601 126.001 363.786 137.209 361.792C143.167 360.733 149.409 359.622 155.945 358.338C174.754 354.642 195.919 349.517 219.5 340.037C242.938 330.614 264.117 330.645 282.029 336.811C299.948 342.979 314.631 355.299 325.046 370.508C345.897 400.953 349.562 442.824 328.037 469.888Z" stroke="#212121"/>
<path d="M315.211 469.849L314.906 470.233C295.378 494.786 285.091 507.72 278.347 520.266C271.558 532.894 268.365 545.118 262.912 568.326C257.516 591.295 235.855 607.625 211.488 611.988C187.142 616.347 160.218 608.733 144.336 583.951C136.295 571.405 125.829 560.672 114.986 550.425C112.151 547.746 109.293 545.102 106.445 542.468C98.3832 535.011 90.4061 527.633 83.3014 519.771C73.6955 509.141 65.7231 497.668 61.359 484.015C56.9969 470.368 56.228 454.507 61.0876 435.084C65.9533 415.637 72.7416 402.905 81.482 394.185C90.2208 385.466 100.956 380.711 113.809 377.298C122.217 375.066 131.491 373.416 141.685 371.603C147.104 370.639 152.782 369.629 158.729 368.46C175.839 365.098 195.092 360.436 216.544 351.812C237.853 343.245 257.105 343.274 273.386 348.879C289.673 354.486 303.021 365.684 312.49 379.51C331.447 407.191 334.774 445.252 315.211 469.849Z" stroke="#212121"/>
<path d="M300.52 469.801L300.244 470.148C282.945 491.898 273.826 503.363 267.848 514.485C261.829 525.682 258.997 536.521 254.166 557.084C249.392 577.409 230.22 591.867 208.644 595.731C187.089 599.59 163.258 592.849 149.199 570.912C142.07 559.789 132.792 550.274 123.183 541.194C120.67 538.82 118.137 536.476 115.613 534.141C108.47 527.535 101.404 520.999 95.1106 514.035C86.6018 504.619 79.5431 494.459 75.6794 482.372C71.8177 470.291 71.1361 456.247 75.4399 439.046C79.7499 421.819 85.7612 410.549 93.4964 402.831C101.23 395.115 110.732 390.906 122.116 387.883C129.564 385.905 137.778 384.444 146.809 382.838C151.611 381.983 156.644 381.088 161.916 380.052C177.079 377.073 194.143 372.941 213.156 365.297C232.026 357.711 249.071 357.738 263.484 362.699C277.903 367.663 289.721 377.577 298.105 389.82C314.894 414.334 317.833 448.032 300.52 469.801Z" stroke="#212121"/>
<path d="M284.768 469.751L284.524 470.057C269.615 488.803 261.75 498.692 256.593 508.286C251.398 517.95 248.955 527.303 244.79 545.032C240.681 562.521 224.18 574.972 205.597 578.299C187.034 581.623 166.518 575.817 154.415 556.932C148.264 547.335 140.259 539.127 131.974 531.297C129.806 529.248 127.621 527.227 125.444 525.214C119.286 519.518 113.198 513.887 107.774 507.885C100.442 499.771 94.3624 491.02 91.0354 480.611C87.7103 470.208 87.1222 458.114 90.8301 443.294C94.5442 428.449 99.7224 418.745 106.38 412.103C113.036 405.462 121.215 401.837 131.024 399.232C137.443 397.528 144.52 396.269 152.304 394.884C156.445 394.148 160.785 393.375 165.334 392.482C178.409 389.912 193.127 386.349 209.524 379.757C225.78 373.222 240.458 373.246 252.868 377.518C265.284 381.792 275.462 390.33 282.683 400.875C297.147 421.994 299.671 451.012 284.768 469.751Z" stroke="#212121"/>
<path d="M269.263 469.702L269.051 469.968C256.494 485.756 249.863 494.095 245.514 502.185C241.131 510.339 239.07 518.231 235.561 533.168C232.108 547.867 218.235 558.342 202.597 561.142C186.98 563.938 169.727 559.054 159.548 543.172C154.36 535.076 147.608 528.154 140.626 521.556C138.798 519.828 136.956 518.124 135.121 516.427C129.933 511.628 124.806 506.886 120.238 501.832C114.064 494.999 108.949 487.634 106.15 478.878C103.353 470.128 102.857 459.951 105.978 447.476C109.106 434.975 113.464 426.812 119.061 421.229C124.656 415.647 131.533 412.596 139.792 410.404C145.198 408.968 151.156 407.908 157.712 406.742C161.202 406.121 164.862 405.47 168.699 404.716C179.719 402.551 192.126 399.547 205.95 393.989C219.631 388.489 231.981 388.511 242.419 392.104C252.863 395.699 261.426 402.882 267.504 411.756C279.678 429.533 281.794 453.946 269.263 469.702Z" stroke="#212121"/>
</svg>
