<svg width="46" height="31" viewBox="0 0 46 31" fill="none" xmlns="http://www.w3.org/2000/svg">
<path d="M11.5675 27.7716H9.86303C9.80275 24.8945 9.63675 22.1898 9.36535 19.6553H9.3502L6.75508 27.7716H5.45735L2.87771 19.6553H2.86289C2.67153 22.0887 2.55098 24.7941 2.50091 27.7716H0.947266C1.04739 24.1508 1.29903 20.7564 1.7012 17.5879H3.81379L6.27255 25.0707H6.2877L8.76161 17.5879H10.783C11.2256 21.2992 11.4872 24.6939 11.5675 27.7716ZM18.9596 20.258C18.2656 24.024 17.35 26.7604 16.2136 28.4685C15.3283 29.7833 14.3583 30.4414 13.302 30.4414C13.0204 30.4414 12.6729 30.3564 12.2612 30.1878V29.2797C12.4624 29.3087 12.6986 29.3252 12.97 29.3252C13.4634 29.3252 13.86 29.1895 14.1623 28.9174C14.524 28.5861 14.7048 28.2136 14.7048 27.8015C14.7048 27.5189 14.5638 26.9412 14.2825 26.0664L12.412 20.2577H14.0866L15.4291 24.6021C15.7308 25.5885 15.8566 26.2772 15.8062 26.6695C16.5404 24.7088 17.0532 22.5708 17.3454 20.2574L18.9596 20.258Z" fill="#FDDD0A"/>
<path d="M41.6483 27.7716H36.8066V17.5877H38.4353V26.518H41.6483V27.7716ZM35.5392 28.0176L33.667 27.0937C33.833 26.9573 33.9918 26.8098 34.1347 26.6388C34.9305 25.7041 35.3274 24.3217 35.3274 22.4907C35.3274 19.1216 34.0053 17.4362 31.3601 17.4362C30.063 17.4362 29.0512 17.8637 28.3276 18.7191C27.5325 19.6545 27.1356 21.0319 27.1356 22.853C27.1356 24.6432 27.4873 25.9564 28.1912 26.7894C28.8351 27.544 29.8058 27.9218 31.1038 27.9218C31.588 27.9218 32.0323 27.8625 32.4371 27.7429L34.8745 29.1618L35.5392 28.0176ZM29.4744 25.7337C29.0621 25.0704 28.8559 24.0052 28.8559 22.5365C28.8559 19.9723 29.6348 18.6888 31.1944 18.6888C32.0096 18.6888 32.6071 18.9957 32.9892 19.6084C33.4009 20.2727 33.6081 21.3284 33.6081 22.7766C33.6081 25.3619 32.8284 26.6547 31.2698 26.6547C30.4543 26.655 29.8568 26.349 29.4744 25.7337ZM26.4258 24.9488C26.4258 25.8124 26.1089 26.5209 25.4759 27.0759C24.8422 27.6286 23.9924 27.9056 22.9275 27.9056C21.9315 27.9056 20.9658 27.5874 20.031 26.9544L20.4688 26.0799C21.2731 26.4827 22.0013 26.683 22.6551 26.683C23.2687 26.683 23.7483 26.5469 24.0961 26.2772C24.4436 26.0064 24.6508 25.6267 24.6508 25.1465C24.6508 24.5414 24.2289 24.0243 23.4548 23.5912C22.7411 23.1992 21.3136 22.3797 21.3136 22.3797C20.5399 21.8158 20.1526 21.2104 20.1526 20.2131C20.1526 19.3877 20.4414 18.7214 21.0195 18.2145C21.5982 17.7056 22.3449 17.452 23.2602 17.452C24.2055 17.452 25.0648 17.7053 25.8388 18.2066L25.4462 19.0814C24.7842 18.8001 24.1307 18.6595 23.4861 18.6595C22.9641 18.6595 22.5609 18.7849 22.2806 19.0369C21.998 19.2879 21.8238 19.609 21.8238 20.003C21.8238 20.6051 22.2546 21.1288 23.0497 21.5705C23.773 21.9631 25.2361 22.7967 25.2361 22.7967C26.0295 23.3596 26.4258 23.9594 26.4258 24.9488Z" fill="#FDDD0A"/>
<path d="M43.6932 14.1769C42.7083 14.1518 41.9458 14.251 41.3059 14.5217C41.1211 14.5955 40.8273 14.5955 40.8016 14.829C40.9014 14.9278 40.9129 15.0873 40.9996 15.2236C41.1471 15.4697 41.4044 15.8007 41.6392 15.9733C41.8971 16.1709 42.156 16.3665 42.4274 16.5388C42.906 16.8349 43.4484 17.0072 43.9148 17.3023C44.1866 17.4739 44.4567 17.6959 44.7287 17.8807C44.8624 17.9791 44.9481 18.1389 45.1217 18.2005V18.1629C45.0347 18.0523 45.01 17.8922 44.9247 17.769L44.5551 17.4126C44.1981 16.9331 43.7544 16.5144 43.2759 16.1706C42.8819 15.8992 42.0203 15.5303 41.8605 15.0764L41.8355 15.0514C42.1062 15.026 42.4274 14.9278 42.6846 14.8524C43.1033 14.7421 43.485 14.7671 43.9145 14.6568C44.1121 14.6074 44.3081 14.5454 44.5064 14.4845V14.3735C44.2837 14.1518 44.125 13.8574 43.8908 13.6479C43.2643 13.1067 42.574 12.5774 41.8605 12.1344C41.4785 11.8877 40.987 11.729 40.5803 11.5192C40.4337 11.4451 40.1867 11.4085 40.1004 11.2853C39.8797 11.0146 39.7555 10.6582 39.5954 10.3377C39.2397 9.66152 38.8942 8.91121 38.5872 8.19614C38.3652 7.71658 38.2302 7.23767 37.9594 6.79401C36.6913 4.7025 35.3142 3.43573 33.1977 2.19236C32.7428 1.93347 32.2017 1.82313 31.6236 1.68743L30.7004 1.63868C30.5034 1.55239 30.3061 1.3182 30.1342 1.20753C29.432 0.764858 27.624 -0.194602 27.1076 1.07216C26.7749 1.87286 27.5997 2.66006 27.8829 3.06618C28.0921 3.34812 28.3631 3.66893 28.5094 3.98908C28.596 4.19823 28.6204 4.42023 28.707 4.64123C28.904 5.18272 29.0881 5.78514 29.347 6.2904C29.482 6.54797 29.6293 6.81871 29.8018 7.05191C29.9007 7.18827 30.0726 7.24854 30.1101 7.47087C29.9385 7.71592 29.925 8.0858 29.8265 8.39344C29.3839 9.78372 29.5568 11.506 30.1843 12.5277C30.3806 12.8353 30.8489 13.5125 31.4754 13.253C32.0301 13.0317 31.9072 12.3304 32.0666 11.7155C32.1032 11.5669 32.0791 11.4694 32.1529 11.3719V11.396C32.3245 11.7402 32.4978 12.0719 32.6569 12.417C33.0386 13.0195 33.7033 13.6472 34.257 14.0646C34.5517 14.2872 34.7853 14.668 35.1545 14.804V14.7671H35.1301C35.0554 14.6568 34.946 14.6074 34.8478 14.5217C34.6259 14.3001 34.3801 14.0293 34.2079 13.7836C33.6921 13.0942 33.2356 12.3311 32.8304 11.5435C32.6322 11.1615 32.4612 10.7438 32.3015 10.3624C32.227 10.2152 32.227 9.9932 32.1035 9.91909C31.9184 10.1895 31.6486 10.4237 31.5136 10.755C31.2794 11.285 31.255 11.9368 31.1681 12.6147L31.1197 12.6384C30.7277 12.5399 30.5914 12.1344 30.4425 11.7902C30.0739 10.9161 30.012 9.51297 30.3318 8.50443C30.4174 8.24654 30.788 7.43431 30.6401 7.18859C30.566 6.95309 30.3196 6.81904 30.1846 6.6336C30.0258 6.40041 29.8519 6.10529 29.7412 5.8464C29.4461 5.15769 29.2976 4.39454 28.9797 3.70615C28.8312 3.38534 28.5733 3.05333 28.3645 2.75789C28.13 2.42588 27.872 2.19203 27.6866 1.79843C27.6253 1.66306 27.5394 1.44172 27.6379 1.29449C27.6619 1.19568 27.712 1.15879 27.8101 1.13408C27.9695 0.999371 28.4251 1.17064 28.5848 1.24475C29.041 1.4292 29.4224 1.60146 29.8032 1.85969C29.9754 1.9832 30.1602 2.21706 30.3812 2.27865H30.6401C31.033 2.36429 31.4761 2.30237 31.8459 2.41369C32.4978 2.62317 33.0883 2.93048 33.618 3.26215C35.2296 4.28419 36.5586 5.7364 37.4558 7.47087C37.6031 7.75347 37.6656 8.01235 37.8 8.30714C38.0592 8.91055 38.3797 9.52582 38.637 10.1164C38.8955 10.6944 39.1419 11.2847 39.5111 11.7649C39.6952 12.0231 40.435 12.1585 40.7667 12.2939C41.0121 12.4042 41.3941 12.5024 41.6155 12.6377C42.0341 12.8956 42.4511 13.1917 42.8447 13.4753C43.0407 13.6229 43.6566 13.9305 43.6932 14.1769ZM31.1421 3.48415C30.9722 3.48239 30.8028 3.50321 30.6385 3.54607V3.57078H30.6622C30.7613 3.76741 30.9336 3.90377 31.0564 4.07537C31.1556 4.27267 31.2415 4.46831 31.3387 4.66528L31.3624 4.6409C31.536 4.51805 31.6223 4.32108 31.6223 4.02564C31.5475 3.93868 31.536 3.85371 31.4737 3.76741C31.4013 3.64423 31.2415 3.58296 31.1421 3.48415Z" fill="#FDDD0A"/>
<path d="M44.8649 27.77H45.1198V26.5223H44.7374L44.4255 27.3738L44.0866 26.5223H43.7184V27.77H43.9591V26.8207H43.9726L44.3277 27.77H44.5111L44.8649 26.8207V27.77ZM42.8113 27.77H43.0811V26.7338H43.4342V26.522H42.4435V26.7338H42.8107L42.8113 27.77Z" fill="#FDDD0A"/>
</svg>
