<svg width="146" height="68" viewBox="0 0 146 68" fill="none" xmlns="http://www.w3.org/2000/svg">
<path fill-rule="evenodd" clip-rule="evenodd" d="M121.494 61.6085L120.263 63.9736L119.033 61.6085H118.19L119.883 64.6433V66.5884H120.624V64.5383H120.699L122.336 61.6057L121.494 61.6085ZM105.522 65.262C105.361 65.4857 105.147 65.6664 104.899 65.7882C104.652 65.91 104.378 65.969 104.102 65.9602C103.616 65.9447 103.156 65.741 102.817 65.3918C102.479 65.0428 102.29 64.576 102.29 64.09C102.29 63.604 102.479 63.1371 102.817 62.788C103.156 62.439 103.616 62.2351 104.102 62.2197C104.403 62.2091 104.701 62.2796 104.966 62.424C105.187 62.5458 105.378 62.7171 105.523 62.9244L106.169 62.5546C105.938 62.2248 105.629 61.9565 105.27 61.773C104.911 61.5896 104.513 61.4964 104.11 61.5017C103.767 61.4927 103.426 61.5536 103.107 61.6808C102.789 61.808 102.499 61.9987 102.257 62.2414C102.015 62.484 101.824 62.7735 101.697 63.0921C101.571 63.4107 101.51 63.7519 101.52 64.0946C101.512 64.4369 101.574 64.777 101.702 65.0946C101.829 65.4122 102.02 65.7007 102.262 65.9426C102.505 66.1845 102.793 66.3747 103.111 66.502C103.429 66.6293 103.77 66.6908 104.112 66.683C104.516 66.6901 104.915 66.598 105.276 66.415C105.636 66.2318 105.946 65.9633 106.178 65.6329L105.522 65.262ZM88.3146 61.6066V65.1306L85.8455 61.6066H85.272V66.5978H86.014V63.0616L88.485 66.5978H89.0585V61.6066H88.3146ZM70.2944 65.8826V64.422H72.2818V63.7267H70.2944V62.3172H72.471V61.6066H69.5373V66.5978H72.5089V65.8874L70.2944 65.8826ZM54.641 64.0436V64.6803H56.3009L56.2442 64.8638C56.0265 65.5639 55.416 65.9659 54.5699 65.9659C53.4343 65.9659 52.6337 65.2015 52.6337 64.107C52.6248 63.8589 52.6671 63.6117 52.7575 63.3805C52.848 63.1493 52.9849 62.9391 53.1597 62.7628C53.3346 62.5865 53.5437 62.4479 53.7742 62.3554C54.0046 62.263 54.2516 62.2188 54.4999 62.2253C54.7788 62.2156 55.056 62.2724 55.3085 62.3911C55.561 62.51 55.7815 62.6873 55.9517 62.9084L56.5943 62.5376C56.3685 62.2286 56.0757 61.9747 55.7378 61.7949C55.3559 61.5902 54.9274 61.4882 54.4943 61.4988H54.4479C54.102 61.4983 53.7594 61.5666 53.4403 61.6999C53.1212 61.8334 52.8319 62.029 52.5893 62.2755C52.3468 62.522 52.1558 62.8143 52.0277 63.1354C51.8995 63.4566 51.8368 63.8001 51.8432 64.1458C51.8494 64.4914 51.9246 64.8324 52.0644 65.1487C52.2041 65.4649 52.4056 65.7502 52.657 65.9877C52.9083 66.2252 53.2046 66.4102 53.5283 66.5319C53.8521 66.6535 54.1969 66.7094 54.5425 66.6962C56.0094 66.6962 56.9909 65.7369 56.9909 64.3094V64.0436H54.641ZM38.2323 61.6066H37.1515L35.4102 66.5978H36.2288L36.5439 65.6518H38.8455L39.1607 66.5978H39.9831L38.2323 61.6066ZM36.7796 64.9574L37.7004 62.214L38.6175 64.9574H36.7796Z" fill="#FDDD0A"/>
<path d="M54.1426 16.0323V52.1063H63.178V15.998L54.1426 16.0323Z" fill="#FDDD0A"/>
<path d="M91.2629 33.8916C90.9446 35.0058 91.6608 35.6159 92.0587 35.6822C95.7133 34.3854 97.0327 31.5836 96.038 29.793L91.2629 33.8916Z" fill="#A1C556"/>
<path d="M90.0688 34.8835L91.2626 33.8887C91.1031 34.6845 91.7267 35.414 92.0584 35.6793C90.3075 35.8385 90.0025 35.2151 90.0688 34.8835Z" fill="#8CA93D"/>
<path d="M96.0372 29.792L90.2673 34.8851L90.0684 32.2986C92.9334 28.6377 95.2414 29.0625 96.0372 29.792Z" fill="#44923C"/>
<path d="M88.559 32.793C88.8003 33.6378 88.2573 34.1004 87.9556 34.1507C85.1848 33.1675 84.1845 31.0432 84.9387 29.6855L88.559 32.793Z" fill="#A1C556"/>
<path d="M89.4645 33.5492L88.5594 32.7949C88.6802 33.3983 88.2075 33.9514 87.956 34.1526C89.2834 34.2732 89.5147 33.8006 89.4645 33.5492Z" fill="#8CA93D"/>
<path d="M84.9394 29.6864L89.314 33.5479L89.4648 31.5868C87.2926 28.8112 85.5428 29.1333 84.9394 29.6864Z" fill="#44923C"/>
<rect x="89.0723" y="26.1309" width="1.19377" height="12.3357" rx="0.596887" fill="#297925"/>
<path d="M90.9035 25.2168C90.2668 25.3365 89.8689 25.3567 89.4709 25.3564C89.3117 26.1522 89.9351 26.5963 90.2667 26.7289C91.0626 26.2514 91.0361 25.5484 90.9035 25.2168Z" fill="#54AE4E"/>
<path d="M88.2773 25.1973C88.6753 25.3364 89.2058 25.3563 89.4711 25.3563C89.3119 26.1521 89.9354 26.5965 90.267 26.7291C88.8344 27.3658 88.3437 25.9931 88.2773 25.1973Z" fill="#44923C"/>
<path d="M88.8739 13C92.694 13 94.3122 15.2549 94.6438 16.3824C91.779 16.5415 90.2665 17.7751 89.8684 18.372C86.0881 18.372 85.0934 16.9792 84.4965 16.1834C84.1589 15.7332 83.7009 14.7907 84.8947 13.9948C85.8497 13.3581 87.9454 13.0663 88.8739 13Z" fill="#861115"/>
<path d="M89.8679 18.3727C86.5253 17.2586 86.7508 14.7251 87.2814 13.5977C90.4649 14.2343 91.3932 16.2505 91.4594 17.179C90.8227 17.3381 90.1331 18.0411 89.8679 18.3727Z" fill="#790E11"/>
<path d="M86.0874 13.9958C86.4853 13.3982 87.1485 13.465 87.4801 13.5977C86.0476 16.4627 88.4749 17.9749 89.8677 18.3728C87.9576 18.532 86.2863 17.7759 85.6895 17.378V15.7863C85.6895 14.7915 85.6898 14.5929 86.0874 13.9958Z" fill="#A1191B"/>
<path d="M94.6437 16.3828C95.1212 16.3828 95.108 16.7807 95.0417 16.9797C90.9032 19.0489 90.7971 23.2802 91.2614 25.1371C89.1922 25.6147 88.0117 25.2035 87.6801 24.9382C87.4807 21.7544 88.3784 20.2931 89.6697 18.5714C90.8635 16.9797 92.6544 16.3828 94.6437 16.3828Z" fill="#D4352B"/>
<path d="M91.2592 25.136C90.0657 20.1619 93.2488 17.7744 95.0394 16.9785V20.5596C94.7211 23.4245 92.3866 24.8042 91.2592 25.136Z" fill="#EB4C44"/>
<path d="M87.68 24.9375C85.4516 22.8683 85.4908 19.9635 85.6904 17.377C87.2819 18.1728 87.8788 18.3718 89.8686 18.3718C87.9586 20.441 87.6136 23.6111 87.68 24.9375Z" fill="#BD2823"/>
<path d="M87.6807 24.9386C83.5423 23.5061 83.899 18.5718 84.1172 15.1895C84.1172 15.1895 84.298 15.7863 84.696 16.3832C85.0939 16.9801 85.6911 17.378 85.6911 17.378C85.4907 22.3521 86.8834 24.1428 87.6807 24.9386Z" fill="#A1191B"/>
<path d="M110.333 15.998H99.7979L89.2617 37.3005L78.7307 15.998H68.1895L85.8667 52.1063H92.6567L110.333 15.998Z" fill="#FDDD0A"/>
<path fill-rule="evenodd" clip-rule="evenodd" d="M127.153 15.9987C122.937 16.0193 118.861 17.5006 115.616 20.1902C112.371 22.8798 110.161 26.611 109.36 30.7477C108.56 34.8844 109.221 39.1705 111.228 42.8751C113.236 46.5797 116.468 49.4732 120.371 51.0628C124.275 52.6522 128.609 52.8389 132.635 51.5912C136.661 50.3434 140.129 47.7384 142.448 44.2203C144.768 40.7022 145.795 36.489 145.354 32.2987C144.913 28.1085 143.032 24.201 140.03 21.2423C138.337 19.5611 136.327 18.2321 134.116 17.3321C131.907 16.432 129.54 15.9788 127.153 15.9987ZM127.153 43.0752C124.771 43.0738 122.489 42.1273 120.806 40.4439C119.124 38.7603 118.179 36.4777 118.179 34.098C118.18 31.7182 119.126 29.4361 120.81 27.7536C122.494 26.0711 124.777 25.1259 127.158 25.1259C129.539 25.1259 131.821 26.0711 133.506 27.7536C135.189 29.4361 136.135 31.7182 136.136 34.098C136.137 36.4777 135.192 38.7603 133.509 40.4439C131.826 42.1273 129.544 43.0738 127.163 43.0752H127.153Z" fill="#FDDD0A"/>
<path fill-rule="evenodd" clip-rule="evenodd" d="M48.119 29.0369C48.119 34.7467 44.3282 39.603 39.0514 41.3669L44.4476 52.1063H33.952L24.3516 33.0494H24.3785L24.3277 32.9456H35.4715C37.7012 32.9456 39.5093 31.1942 39.5093 29.0338C39.5093 26.8735 37.7012 25.1222 35.4715 25.1222H19.5026L15.0098 15.998H34.6644C42.0953 15.998 48.119 21.8365 48.119 29.0369Z" fill="#FDDD0A"/>
<path d="M35.5489 31.9689C35.3056 32.8206 35.853 33.287 36.1572 33.3377C38.9508 32.3464 39.9593 30.2047 39.1989 28.8359L35.5489 31.9689Z" fill="#A1C556"/>
<path d="M34.6352 32.7272L35.5477 31.9668C35.4259 32.5751 35.9025 33.1328 36.1561 33.3356C34.8177 33.4572 34.5845 32.9807 34.6352 32.7272Z" fill="#8CA93D"/>
<path d="M39.1973 28.836L34.7869 32.7291L34.6348 30.752C36.8248 27.9536 38.589 28.2783 39.1973 28.836Z" fill="#44923C"/>
<path d="M33.4833 31.1292C33.6678 31.775 33.2527 32.1286 33.0221 32.167C30.9041 31.4155 30.1395 29.7917 30.716 28.7539L33.4833 31.1292Z" fill="#A1C556"/>
<path d="M34.1769 31.7074L33.485 31.1309C33.5774 31.5921 33.216 32.0149 33.0238 32.1686C34.0385 32.2609 34.2153 31.8996 34.1769 31.7074Z" fill="#8CA93D"/>
<path d="M30.7165 28.7546L34.0605 31.7062L34.1758 30.2072C32.5153 28.0856 31.1778 28.3318 30.7165 28.7546Z" fill="#44923C"/>
<rect x="33.877" y="26.0371" width="0.912515" height="9.42932" rx="0.456257" fill="#297925"/>
<path d="M35.2767 25.3359C34.7901 25.4274 34.4859 25.4429 34.1816 25.4426C34.06 26.051 34.5365 26.3904 34.79 26.4918C35.3983 26.1268 35.3781 25.5894 35.2767 25.3359Z" fill="#54AE4E"/>
<path d="M33.2695 25.3223C33.5737 25.4286 33.9793 25.4438 34.182 25.4438C34.0604 26.0522 34.5369 26.3918 34.7904 26.4932C33.6954 26.9799 33.3202 25.9306 33.2695 25.3223Z" fill="#44923C"/>
<path d="M33.7248 16C36.6449 16 37.8818 17.7236 38.1353 18.5855C35.9455 18.7071 34.7893 19.6501 34.485 20.1063C31.5954 20.1063 30.835 19.0417 30.3788 18.4334C30.1207 18.0892 29.7706 17.3688 30.6831 16.7604C31.4131 16.2738 33.0151 16.0507 33.7248 16Z" fill="#861115"/>
<path d="M34.4846 20.1071C31.9295 19.2554 32.1019 17.3189 32.5075 16.457C34.9409 16.9437 35.6505 18.4848 35.7011 19.1946C35.2145 19.3162 34.6873 19.8536 34.4846 20.1071Z" fill="#790E11"/>
<path d="M31.5952 16.7617C31.8994 16.3049 32.4063 16.356 32.6598 16.4574C31.5648 18.6474 33.4202 19.8033 34.4848 20.1074C33.0248 20.2291 31.7473 19.6512 31.291 19.347V18.1303C31.291 17.3699 31.2912 17.2181 31.5952 16.7617Z" fill="#A1191B"/>
<path d="M38.1352 18.5859C38.5002 18.5859 38.4901 18.8901 38.4394 19.0422C35.276 20.6239 35.1949 23.8582 35.5497 25.2777C33.9681 25.6427 33.0657 25.3284 32.8122 25.1256C32.6598 22.692 33.346 21.5749 34.3331 20.2589C35.2456 19.0422 36.6145 18.5859 38.1352 18.5859Z" fill="#D4352B"/>
<path d="M35.5492 25.2765C34.6369 21.4744 37.0701 19.6494 38.4388 19.041V21.7784C38.1955 23.9683 36.411 25.023 35.5492 25.2765Z" fill="#EB4C44"/>
<path d="M32.8138 25.125C31.1105 23.5433 31.1404 21.3228 31.293 19.3457C32.5095 19.954 32.9658 20.1061 34.4868 20.1061C33.0267 21.6878 32.7631 24.1111 32.8138 25.125Z" fill="#BD2823"/>
<path d="M32.8135 25.126C29.6502 24.031 29.9228 20.2593 30.0896 17.6738C30.0896 17.6738 30.2278 18.1301 30.532 18.5863C30.8362 19.0426 31.2927 19.3468 31.2927 19.3468C31.1395 23.1489 32.2041 24.5177 32.8135 25.126Z" fill="#A1191B"/>
<path d="M33.1584 32.3966C33.1866 33.2819 33.8503 33.559 34.1555 33.5144C36.5132 31.7179 36.82 29.3706 35.6782 28.2992L33.1584 32.3966Z" fill="#A1C556"/>
<path d="M32.5193 33.398L33.1562 32.3954C33.2258 33.0119 33.8499 33.3974 34.1533 33.5132C32.9159 34.0375 32.5484 33.6549 32.5193 33.398Z" fill="#8CA93D"/>
<path d="M35.6767 28.2986L32.6648 33.352L31.9166 31.5156C33.1481 28.1824 34.9272 27.9532 35.6767 28.2986Z" fill="#44923C"/>
<path d="M30.9351 32.2272C31.3078 32.7858 31.0205 33.2492 30.8126 33.3562C28.5662 33.2869 27.3425 31.974 27.5748 30.8098L30.9351 32.2272Z" fill="#A1C556"/>
<path d="M31.771 32.5661L30.9362 32.2282C31.165 32.6393 30.9499 33.1522 30.8137 33.3573C31.8082 33.1354 31.8663 32.7374 31.771 32.5661Z" fill="#8CA93D"/>
<path d="M27.5743 30.8104L31.6595 32.6006L31.3118 31.138C29.0831 29.6243 27.8845 30.267 27.5743 30.8104Z" fill="#44923C"/>
<rect x="29.7539" y="27.2578" width="0.912515" height="9.42932" rx="0.456257" transform="rotate(-17.7699 29.7539 27.2578)" fill="#297925"/>
<path d="M30.8739 26.1618C30.4384 26.3974 30.1535 26.505 29.8637 26.5976C29.9335 27.2141 30.4908 27.3918 30.7632 27.411C31.2311 26.8778 31.0479 26.3722 30.8739 26.1618Z" fill="#54AE4E"/>
<path d="M28.959 26.7617C29.2811 26.7702 29.672 26.6609 29.8651 26.599C29.9349 27.2154 30.4923 27.3934 30.7646 27.4126C29.8704 28.2103 29.1929 27.3256 28.959 26.7617Z" fill="#44923C"/>
<path d="M26.5476 17.7467C29.3283 16.8555 31.0323 18.1194 31.5367 18.8627C29.4885 19.6469 28.6753 20.8977 28.5247 21.4251C25.773 22.307 24.7239 21.5252 24.1038 21.0852C23.753 20.8362 23.1998 20.257 23.8831 19.3991C24.4297 18.7129 25.8872 18.0116 26.5476 17.7467Z" fill="#861115"/>
<path d="M28.5242 21.4255C25.8311 21.3942 25.4043 19.4975 25.5274 18.553C27.9933 18.2738 29.1394 19.5248 29.4042 20.1852C28.9779 20.4496 28.6399 21.1222 28.5242 21.4255Z" fill="#790E11"/>
<path d="M24.7512 19.1198C24.9014 18.592 25.3998 18.4859 25.6721 18.5051C25.2977 20.9248 27.4174 21.4593 28.524 21.424C27.1708 21.9855 25.7778 21.825 25.2505 21.6746L24.8792 20.516C24.6471 19.7918 24.601 19.6472 24.7512 19.1198Z" fill="#A1191B"/>
<path d="M31.5365 18.8631C31.8841 18.7517 31.9673 19.0445 31.9654 19.2048C29.4357 21.6765 30.3455 24.7813 31.1167 26.0247C29.7218 26.855 28.7666 26.8311 28.4633 26.7154C27.5755 24.4443 27.888 23.1711 28.4263 21.6166C28.924 20.1795 30.0884 19.3272 31.5365 18.8631Z" fill="#D4352B"/>
<path d="M31.1146 26.0236C29.0855 22.6813 30.8455 20.2007 31.9633 19.2037L32.7988 21.8105C33.2354 23.9702 31.8579 25.5191 31.1146 26.0236Z" fill="#EB4C44"/>
<path d="M28.4628 26.7144C26.358 25.728 25.7089 23.6044 25.2507 21.675C26.5949 21.8831 27.0758 21.8887 28.5242 21.4245C27.6166 23.3763 28.1051 25.7644 28.4628 26.7144Z" fill="#BD2823"/>
<path d="M28.4654 26.7145C25.1187 26.6372 24.2273 22.9622 23.5971 20.4492C23.5971 20.4492 23.8679 20.8415 24.2968 21.1832C24.7257 21.5248 25.2533 21.6752 25.2533 21.6752C26.2678 25.3427 27.6993 26.3212 28.4654 26.7145Z" fill="#A1191B"/>
<path d="M33.1706 35.7895C32.7498 36.5689 33.1842 37.1421 33.4703 37.2571C36.4117 36.8898 37.8572 35.0151 37.409 33.5148L33.1706 35.7895Z" fill="#A1C556"/>
<path d="M32.116 36.3338L33.1707 35.7874C32.9209 36.3553 33.2665 37.0024 33.4705 37.255C32.1373 37.086 32.012 36.5705 32.116 36.3338Z" fill="#8CA93D"/>
<path d="M37.4079 33.5154L32.2634 36.3689L32.5401 34.4054C35.2807 32.1434 36.9338 32.84 37.4079 33.5154Z" fill="#44923C"/>
<path d="M31.3349 34.5247C31.3762 35.195 30.8948 35.4511 30.6613 35.439C28.7545 34.2496 28.3569 32.4993 29.1431 31.6098L31.3349 34.5247Z" fill="#A1C556"/>
<path d="M31.887 35.2378L31.3353 34.526C31.3263 34.9963 30.8825 35.3315 30.6617 35.4403C31.6328 35.7486 31.8832 35.4338 31.887 35.2378Z" fill="#8CA93D"/>
<path d="M29.1423 31.6094L31.7732 35.2112L32.2082 33.772C31.0429 31.3429 29.6836 31.2957 29.1423 31.6094Z" fill="#44923C"/>
<rect x="32.8125" y="29.6367" width="0.912515" height="9.42932" rx="0.456257" transform="rotate(12.4189 32.8125 29.6367)" fill="#297925"/>
<path d="M34.3307 29.2514C33.8358 29.2361 33.5354 29.1858 33.2383 29.1201C32.9887 29.6881 33.3811 30.122 33.6068 30.2756C34.2794 30.0499 34.3752 29.5208 34.3307 29.2514Z" fill="#54AE4E"/>
<path d="M32.373 28.8066C32.6472 28.9759 33.04 29.078 33.2381 29.1216C32.9884 29.6895 33.3808 30.1237 33.6065 30.2773C32.4324 30.5171 32.2917 29.4117 32.373 28.8066Z" fill="#44923C"/>
<path d="M34.8234 19.8008C37.6751 20.4288 38.5125 22.3782 38.5747 23.2743C36.4099 22.9222 35.078 23.5944 34.6827 23.9746C31.8607 23.3531 31.3471 22.1499 31.0323 21.4577C30.8543 21.0661 30.6673 20.2872 31.6893 19.8893C32.5069 19.571 34.1194 19.6977 34.8234 19.8008Z" fill="#861115"/>
<path d="M34.683 23.9761C32.3709 22.5949 32.9557 20.7407 33.5371 19.9863C35.809 20.9849 36.1705 22.6426 36.0673 23.3466C35.5659 23.3608 34.9355 23.7722 34.683 23.9761Z" fill="#790E11"/>
<path d="M32.5801 20.0859C32.9754 19.7053 33.4595 19.8642 33.6853 20.0177C32.1449 21.921 33.7083 23.4488 34.6826 23.9749C33.2306 23.7797 32.1072 22.9405 31.7271 22.5454L31.9887 21.3572C32.1523 20.6145 32.1851 20.4663 32.5801 20.0859Z" fill="#A1191B"/>
<path d="M38.5746 23.2743C38.9311 23.3528 38.8558 23.6477 38.7735 23.7853C35.344 24.6497 34.5692 27.7909 34.6105 29.2535C32.9873 29.2698 32.1737 28.7688 31.9697 28.5162C32.3443 26.1068 33.2547 25.1634 34.5017 24.0904C35.6545 23.0985 37.0895 22.9473 38.5746 23.2743Z" fill="#D4352B"/>
<path d="M34.6098 29.2536C34.5365 25.3443 37.3052 24.0852 38.7728 23.7855L38.1841 26.4588C37.4755 28.5451 35.506 29.1913 34.6098 29.2536Z" fill="#EB4C44"/>
<path d="M31.9694 28.5166C30.646 26.6056 31.1528 24.4436 31.727 22.5455C32.7842 23.4013 33.1971 23.6479 34.6825 23.975C32.9165 25.2057 32.1379 27.5155 31.9694 28.5166Z" fill="#BD2823"/>
<path d="M31.9712 28.5177C29.1174 26.768 30.1948 23.1431 30.9137 20.654C30.9137 20.654 30.9505 21.1293 31.1495 21.6403C31.3484 22.1513 31.7288 22.5466 31.7288 22.5466C30.7615 26.2268 31.5068 27.7925 31.9712 28.5177Z" fill="#A1191B"/>
<path d="M44.4481 52.1061L39.0518 41.3666C43.0704 40.0234 46.2271 36.8867 47.5041 32.9453H35.4719H24.3281L24.379 33.0491H24.3521L33.9525 52.1061H44.4481Z" fill="#FDDD0A"/>
<path d="M60.5769 3.91602C59.2705 3.91602 58.5 4.9921 58.5 4.9921C58.5 4.9921 57.7295 3.91602 56.4231 3.91602C55.1167 3.91602 54 4.78523 54 6.42689C54 8.06854 54.6923 8.93775 55.7308 10.0138C56.7692 11.0899 58.5 12.166 58.5 12.166C58.5 12.166 60.2308 11.0899 61.2692 10.0138C62.3077 8.93775 63 8.06854 63 6.42689C63 4.78523 61.8833 3.91602 60.5769 3.91602Z" fill="#EA3C31"/>
<path d="M59 11.5C61.8 9.1 62.5 7.16667 62.5 6.5C62.5 5.3 61.8333 5 61.5 5C61.9 5.4 62 5.83333 62 6C62 8 60 10.5 59 11.5Z" fill="#BD2823"/>
<path d="M55.4993 4.9985C56.4997 3.9975 57.6658 4.99908 57.9991 5.49908C55.9989 5.89946 57.4992 9.66559 58.4994 11.4986L55.9983 9.49973C55 8.5 53.9992 6.49946 55.4993 4.9985Z" fill="#FA5149"/>
<path d="M19.7445 42C17.9893 42 16.9541 43.4458 16.9541 43.4458C16.9541 43.4458 15.9189 42 14.1637 42C12.4085 42 10.9082 43.1678 10.9082 45.3734C10.9082 47.5791 11.8383 48.7469 13.2335 50.1926C14.6288 51.6384 16.9541 53.0841 16.9541 53.0841C16.9541 53.0841 19.2794 51.6384 20.6747 50.1926C22.0699 48.7469 23 47.5791 23 45.3734C23 43.1678 21.4997 42 19.7445 42Z" fill="#EA3C31"/>
<path d="M17.627 52.19C21.3888 48.9655 22.3293 46.368 22.3293 45.4723C22.3293 43.8601 21.4336 43.457 20.9858 43.457C21.5232 43.9944 21.6576 44.5766 21.6576 44.8006C21.6576 47.4876 18.9705 50.8465 17.627 52.19Z" fill="#BD2823"/>
<path d="M12.9222 43.4542C14.2663 42.1093 15.8329 43.455 16.2808 44.1267C13.5934 44.6647 15.6091 49.7246 16.9529 52.1873L13.5927 49.5017C12.2514 48.1586 10.9068 45.4708 12.9222 43.4542Z" fill="#FA5149"/>
<path d="M126.45 34.3877C126.484 35.2728 127.15 35.5454 127.455 35.4987C129.8 33.6862 130.091 31.3369 128.942 30.2733L126.45 34.3877Z" fill="#A1C556"/>
<path d="M125.819 35.3944L126.449 34.3875C126.523 35.0035 127.15 35.3848 127.454 35.4985C126.22 36.0312 125.85 35.6511 125.819 35.3944Z" fill="#8CA93D"/>
<path d="M128.941 30.2742L125.964 35.3479L125.203 33.5167C126.412 30.1751 128.189 29.9339 128.941 30.2742Z" fill="#44923C"/>
<path d="M124.226 34.2343C124.602 34.7903 124.318 35.2557 124.111 35.3641C121.864 35.31 120.632 34.0054 120.856 32.8397L124.226 34.2343Z" fill="#A1C556"/>
<path d="M125.066 34.5669L124.229 34.2347C124.46 34.6441 124.249 35.1585 124.114 35.3645C125.107 35.1359 125.162 34.7375 125.066 34.5669Z" fill="#8CA93D"/>
<path d="M120.857 32.8399L124.954 34.6024L124.596 33.1421C122.358 31.6436 121.163 32.2944 120.857 32.8399Z" fill="#44923C"/>
<rect x="123.012" y="29.2734" width="0.912515" height="9.42932" rx="0.456257" transform="rotate(-18.1588 123.012 29.2734)" fill="#297925"/>
<path d="M124.126 28.1702C123.692 28.4088 123.407 28.5183 123.118 28.6129C123.192 29.2288 123.751 29.4028 124.023 29.4202C124.488 28.8838 124.301 28.3795 124.126 28.1702Z" fill="#54AE4E"/>
<path d="M122.213 28.7832C122.535 28.7895 122.925 28.6775 123.118 28.6143C123.192 29.2303 123.75 29.4045 124.023 29.4219C123.134 30.2256 122.451 29.3454 122.213 28.7832Z" fill="#44923C"/>
<path d="M119.741 19.7818C122.516 18.8718 124.228 20.1241 124.738 20.864C122.695 21.6621 121.89 22.9183 121.743 23.4467C118.997 24.3473 117.943 23.5727 117.32 23.1368C116.968 22.8902 116.41 22.3148 117.088 21.4523C117.63 20.7624 119.083 20.0512 119.741 19.7818Z" fill="#861115"/>
<path d="M121.742 23.4485C119.049 23.4355 118.609 21.5417 118.726 20.5964C121.19 20.3004 122.345 21.5437 122.614 22.2023C122.189 22.4696 121.856 23.1444 121.742 23.4485Z" fill="#790E11"/>
<path d="M117.954 21.1698C118.101 20.641 118.598 20.5315 118.871 20.5488C118.513 22.9711 120.636 23.4911 121.743 23.4484C120.393 24.019 118.999 23.868 118.471 23.7212L118.092 22.5651C117.855 21.8425 117.808 21.6982 117.954 21.1698Z" fill="#A1191B"/>
<path d="M124.738 20.8657C125.085 20.752 125.17 21.0442 125.169 21.2045C122.657 23.6933 123.587 26.7918 124.367 28.03C122.978 28.8698 122.022 28.8523 121.718 28.7386C120.815 26.4737 121.119 25.1984 121.647 23.6403C122.135 22.1998 123.293 21.3396 124.738 20.8657Z" fill="#D4352B"/>
<path d="M124.363 28.0288C122.312 24.7003 124.055 22.2079 125.166 21.2033L126.019 23.8043C126.47 25.961 125.103 27.5192 124.363 28.0288Z" fill="#EB4C44"/>
<path d="M121.718 28.737C119.606 27.7649 118.943 25.6457 118.471 23.7195C119.817 23.9184 120.298 23.9208 121.743 23.4467C120.849 25.4047 121.353 27.7894 121.718 28.737Z" fill="#BD2823"/>
<path d="M121.719 28.7374C118.371 28.6828 117.455 25.014 116.808 22.5053C116.808 22.5053 117.081 22.8957 117.513 23.2345C117.944 23.5732 118.472 23.72 118.472 23.72C119.512 27.3805 120.95 28.3493 121.719 28.7374Z" fill="#A1191B"/>
<path d="M126.249 41.3741C126.283 42.2592 126.949 42.5317 127.253 42.4851C129.599 40.6726 129.89 38.3232 128.741 37.2596L126.249 41.3741Z" fill="#A1C556"/>
<path d="M125.618 42.3808L126.248 41.3738C126.322 41.9898 126.949 42.3712 127.253 42.4848C126.019 43.0175 125.649 42.6374 125.618 42.3808Z" fill="#8CA93D"/>
<path d="M128.74 37.2605L125.762 42.3343L125.002 40.503C126.211 37.1615 127.988 36.9202 128.74 37.2605Z" fill="#44923C"/>
<path d="M124.025 41.2206C124.401 41.7767 124.117 42.242 123.91 42.3504C121.663 42.2964 120.431 40.9918 120.655 39.826L124.025 41.2206Z" fill="#A1C556"/>
<path d="M124.865 41.5532L124.028 41.221C124.259 41.6305 124.047 42.1448 123.913 42.3508C124.906 42.1223 124.961 41.7238 124.865 41.5532Z" fill="#8CA93D"/>
<path d="M120.656 39.8262L124.753 41.5887L124.395 40.1285C122.156 38.6299 120.962 39.2808 120.656 39.8262Z" fill="#44923C"/>
<rect x="122.811" y="36.2598" width="0.912515" height="9.42932" rx="0.456257" transform="rotate(-18.1588 122.811 36.2598)" fill="#297925"/>
<path d="M123.924 35.1565C123.49 35.3951 123.206 35.5046 122.917 35.5992C122.991 36.2152 123.55 36.3892 123.822 36.4065C124.286 35.8701 124.1 35.3658 123.924 35.1565Z" fill="#54AE4E"/>
<path d="M122.012 35.7695C122.334 35.7758 122.724 35.6638 122.917 35.6006C122.991 36.2166 123.549 36.3908 123.822 36.4082C122.933 37.2119 122.249 36.3318 122.012 35.7695Z" fill="#44923C"/>
<path d="M119.54 26.7681C122.315 25.8581 124.027 27.1104 124.537 27.8503C122.494 28.6484 121.689 29.9047 121.542 30.4331C118.796 31.3336 117.742 30.559 117.119 30.1231C116.766 29.8766 116.209 29.3011 116.887 28.4387C117.429 27.7487 118.881 27.0375 119.54 26.7681Z" fill="#861115"/>
<path d="M121.541 30.4348C118.848 30.4218 118.408 28.528 118.525 27.5827C120.989 27.2868 122.144 28.53 122.413 29.1886C121.988 29.4559 121.655 30.1308 121.541 30.4348Z" fill="#790E11"/>
<path d="M117.753 28.1561C117.9 27.6273 118.397 27.5178 118.67 27.5352C118.312 29.9574 120.435 30.4774 121.541 30.4347C120.192 31.0053 118.798 30.8543 118.27 30.7075L117.89 29.5514C117.653 28.8288 117.606 28.6845 117.753 28.1561Z" fill="#A1191B"/>
<path d="M124.537 27.8521C124.884 27.7383 124.969 28.0305 124.968 28.1908C122.455 30.6796 123.386 33.7781 124.166 35.0163C122.777 35.8561 121.821 35.8387 121.517 35.725C120.614 33.46 120.918 32.1847 121.446 30.6266C121.933 29.1861 123.092 28.326 124.537 27.8521Z" fill="#D4352B"/>
<path d="M124.162 35.0151C122.11 31.6866 123.854 29.1942 124.965 28.1896L125.818 30.7906C126.269 32.9473 124.902 34.5056 124.162 35.0151Z" fill="#EB4C44"/>
<path d="M121.516 35.7233C119.405 34.7513 118.741 32.6321 118.27 30.7059C119.616 30.9048 120.097 30.9071 121.542 30.4331C120.647 32.391 121.152 34.7757 121.516 35.7233Z" fill="#BD2823"/>
<path d="M121.517 35.7237C118.17 35.6691 117.254 32.0003 116.607 29.4916C116.607 29.4916 116.88 29.8821 117.311 30.2208C117.743 30.5595 118.271 30.7063 118.271 30.7063C119.311 34.3668 120.749 35.3356 121.517 35.7237Z" fill="#A1191B"/>
<path d="M128.486 35.8405C127.921 36.5227 128.235 37.1697 128.493 37.3384C131.45 37.5532 133.234 35.9973 133.087 34.4383L128.486 35.8405Z" fill="#A1C556"/>
<path d="M127.345 36.1676L128.486 35.838C128.13 36.3461 128.342 37.0482 128.493 37.3358C127.219 36.9094 127.196 36.3794 127.345 36.1676Z" fill="#8CA93D"/>
<path d="M133.085 34.4364L127.482 36.2291L128.137 34.3575C131.267 32.675 132.752 33.6813 133.085 34.4364Z" fill="#44923C"/>
<path d="M126.933 34.2406C126.843 34.9061 126.32 35.0631 126.094 35.0056C124.456 33.4663 124.409 31.6722 125.353 30.9535L126.933 34.2406Z" fill="#A1C556"/>
<path d="M127.334 35.0475L126.932 34.2416C126.832 34.701 126.331 34.943 126.093 35.0065C126.985 35.4987 127.292 35.2389 127.334 35.0475Z" fill="#8CA93D"/>
<path d="M125.354 30.9538L127.23 35.0003L127.938 33.674C127.27 31.0639 125.946 30.7519 125.354 30.9538Z" fill="#44923C"/>
<rect x="129.338" y="29.7344" width="0.912515" height="9.42932" rx="0.456257" transform="rotate(23.6924 129.338 29.7344)" fill="#297925"/>
<path d="M130.903 29.6549C130.421 29.5431 130.136 29.4351 129.858 29.3126C129.502 29.8208 129.802 30.3231 129.993 30.5178C130.697 30.428 130.894 29.9278 130.903 29.6549Z" fill="#54AE4E"/>
<path d="M129.07 28.8359C129.306 29.0555 129.671 29.2324 129.857 29.3139C129.501 29.8221 129.801 30.3246 129.992 30.5193C128.794 30.525 128.872 29.4134 129.07 28.8359Z" fill="#44923C"/>
<path d="M133.233 20.4833C135.907 21.6566 136.347 23.7321 136.233 24.6231C134.179 23.8546 132.741 24.2535 132.279 24.549C129.633 23.3878 129.365 22.1074 129.191 21.367C129.093 20.9482 129.062 20.1478 130.142 19.9574C131.006 19.8051 132.563 20.2445 133.233 20.4833Z" fill="#861115"/>
<path d="M132.279 24.5501C130.281 22.7435 131.217 21.0394 131.935 20.4132C133.968 21.8367 133.998 23.533 133.759 24.2033C133.265 24.1192 132.566 24.3994 132.279 24.5501Z" fill="#790E11"/>
<path d="M130.978 20.3232C131.44 20.0271 131.884 20.2776 132.075 20.4723C130.193 22.0377 131.427 23.8417 132.28 24.5481C130.894 24.0728 129.956 23.0302 129.661 22.5684L130.15 21.4542C130.455 20.7579 130.517 20.619 130.978 20.3232Z" fill="#A1191B"/>
<path d="M136.234 24.624C136.568 24.7707 136.436 25.0451 136.329 25.164C132.796 25.3413 131.423 28.2704 131.177 29.7129C129.582 29.4115 128.882 28.7611 128.731 28.4736C129.57 26.1838 130.647 25.4366 132.08 24.6281C133.404 23.8807 134.841 24.013 136.234 24.624Z" fill="#D4352B"/>
<path d="M131.175 29.7101C131.868 25.8618 134.829 25.1683 136.327 25.1613L135.227 27.6679C134.124 29.5755 132.066 29.8242 131.175 29.7101Z" fill="#EB4C44"/>
<path d="M128.731 28.4729C127.807 26.3401 128.726 24.3188 129.66 22.5697C130.53 23.6156 130.887 23.9382 132.279 24.5493C130.307 25.411 129.092 27.5241 128.731 28.4729Z" fill="#BD2823"/>
<path d="M128.732 28.4742C126.276 26.2003 128.041 22.8561 129.232 20.5555C129.232 20.5555 129.176 21.0289 129.271 21.5689C129.366 22.1089 129.662 22.5709 129.662 22.5709C127.994 25.991 128.419 27.6722 128.732 28.4742Z" fill="#A1191B"/>
<path d="M129.486 42.8405C128.921 43.5227 129.235 44.1697 129.493 44.3384C132.45 44.5532 134.234 42.9973 134.087 41.4383L129.486 42.8405Z" fill="#A1C556"/>
<path d="M128.345 43.1676L129.486 42.838C129.13 43.3461 129.342 44.0482 129.493 44.3358C128.219 43.9094 128.196 43.3794 128.345 43.1676Z" fill="#8CA93D"/>
<path d="M134.085 41.4364L128.482 43.2291L129.137 41.3575C132.267 39.675 133.752 40.6813 134.085 41.4364Z" fill="#44923C"/>
<path d="M127.933 41.2406C127.843 41.9061 127.32 42.0631 127.094 42.0056C125.456 40.4663 125.409 38.6722 126.353 37.9535L127.933 41.2406Z" fill="#A1C556"/>
<path d="M128.334 42.0475L127.932 41.2416C127.832 41.701 127.331 41.943 127.093 42.0065C127.985 42.4987 128.292 42.2389 128.334 42.0475Z" fill="#8CA93D"/>
<path d="M126.354 37.9538L128.23 42.0003L128.938 40.674C128.27 38.0639 126.946 37.7519 126.354 37.9538Z" fill="#44923C"/>
<rect x="130.338" y="36.7344" width="0.912515" height="9.42932" rx="0.456257" transform="rotate(23.6924 130.338 36.7344)" fill="#297925"/>
<path d="M131.903 36.6549C131.421 36.5431 131.136 36.4351 130.858 36.3126C130.502 36.8208 130.802 37.3231 130.993 37.5178C131.697 37.428 131.894 36.9278 131.903 36.6549Z" fill="#54AE4E"/>
<path d="M130.07 35.8359C130.306 36.0555 130.671 36.2324 130.857 36.3139C130.501 36.8221 130.801 37.3246 130.992 37.5193C129.794 37.525 129.872 36.4134 130.07 35.8359Z" fill="#44923C"/>
<path d="M134.233 27.4833C136.907 28.6566 137.347 30.7321 137.233 31.6231C135.179 30.8546 133.741 31.2535 133.279 31.549C130.633 30.3878 130.365 29.1074 130.191 28.367C130.093 27.9482 130.062 27.1478 131.142 26.9574C132.006 26.8051 133.563 27.2445 134.233 27.4833Z" fill="#861115"/>
<path d="M133.279 31.5501C131.281 29.7435 132.217 28.0394 132.935 27.4132C134.968 28.8367 134.998 30.533 134.759 31.2033C134.265 31.1192 133.566 31.3994 133.279 31.5501Z" fill="#790E11"/>
<path d="M131.978 27.3232C132.44 27.0271 132.884 27.2776 133.075 27.4723C131.193 29.0377 132.427 30.8417 133.28 31.5481C131.894 31.0728 130.956 30.0302 130.661 29.5684L131.15 28.4542C131.455 27.7579 131.517 27.619 131.978 27.3232Z" fill="#A1191B"/>
<path d="M137.234 31.624C137.568 31.7707 137.436 32.0451 137.329 32.164C133.796 32.3413 132.423 35.2704 132.177 36.7129C130.582 36.4115 129.882 35.7611 129.731 35.4736C130.57 33.1838 131.647 32.4366 133.08 31.6281C134.404 30.8807 135.841 31.013 137.234 31.624Z" fill="#D4352B"/>
<path d="M132.175 36.7101C132.868 32.8618 135.829 32.1683 137.327 32.1613L136.227 34.6679C135.124 36.5755 133.066 36.8242 132.175 36.7101Z" fill="#EB4C44"/>
<path d="M129.731 35.4729C128.807 33.3401 129.726 31.3188 130.66 29.5697C131.53 30.6156 131.887 30.9382 133.279 31.5493C131.307 32.411 130.092 34.5241 129.731 35.4729Z" fill="#BD2823"/>
<path d="M129.732 35.4742C127.276 33.2003 129.041 29.8561 130.232 27.5555C130.232 27.5555 130.176 28.0289 130.271 28.5689C130.366 29.1089 130.662 29.5709 130.662 29.5709C128.994 32.991 129.419 34.6722 129.732 35.4742Z" fill="#A1191B"/>
<path d="M127.641 39.9783C127.403 40.8313 127.953 41.2946 128.257 41.3436C131.045 40.3364 132.041 38.1889 131.273 36.8245L127.641 39.9783Z" fill="#A1C556"/>
<path d="M126.731 40.7408L127.639 39.9752C127.521 40.5843 128.001 41.1392 128.256 41.3405C126.918 41.4698 126.682 40.9946 126.731 40.7408Z" fill="#8CA93D"/>
<path d="M131.272 36.8236L126.883 40.7418L126.72 38.7656C128.894 35.9548 130.66 36.2694 131.272 36.8236Z" fill="#44923C"/>
<path d="M125.569 39.151C125.757 39.7956 125.344 40.1516 125.114 40.1913C122.992 39.4519 122.218 37.8325 122.788 36.7914L125.569 39.151Z" fill="#A1C556"/>
<path d="M126.266 39.725L125.571 39.1524C125.666 39.6131 125.307 40.038 125.116 40.1928C126.131 40.2793 126.306 39.917 126.266 39.725Z" fill="#8CA93D"/>
<path d="M122.789 36.7919L126.149 39.7244L126.256 38.2248C124.584 36.1126 123.247 36.3665 122.789 36.7919Z" fill="#44923C"/>
<rect x="125.934" y="34.0566" width="0.912515" height="9.42932" rx="0.456257" transform="rotate(-0.326969 125.934 34.0566)" fill="#297925"/>
<path d="M127.329 33.3472C126.843 33.4414 126.539 33.4586 126.235 33.4601C126.117 34.0691 126.595 34.4058 126.849 34.5058C127.456 34.1373 127.432 33.6 127.329 33.3472Z" fill="#54AE4E"/>
<path d="M125.322 33.3438C125.627 33.4484 126.033 33.4612 126.235 33.4601C126.117 34.0691 126.596 34.4061 126.85 34.506C125.758 34.9989 125.376 33.9518 125.322 33.3438Z" fill="#44923C"/>
<path d="M125.725 24.0203C128.645 24.0036 129.892 25.7202 130.15 26.5805C127.961 26.7147 126.81 27.6642 126.508 28.1222C123.619 28.1387 122.852 27.0784 122.393 26.4727C122.133 26.1301 121.778 25.4116 122.687 24.7981C123.415 24.3072 125.015 24.075 125.725 24.0203Z" fill="#861115"/>
<path d="M126.509 28.1217C123.949 27.2847 124.111 25.3471 124.511 24.483C126.948 24.9558 127.666 26.4929 127.721 27.2023C127.235 27.3267 126.711 27.8671 126.509 28.1217Z" fill="#790E11"/>
<path d="M123.599 24.7931C123.901 24.3346 124.408 24.3828 124.662 24.4828C123.58 26.679 125.442 27.8243 126.508 28.1224C125.049 28.2524 123.768 27.6817 123.31 27.3802L123.303 26.1635C123.299 25.4031 123.298 25.2513 123.599 24.7931Z" fill="#A1191B"/>
<path d="M130.151 26.5808C130.516 26.5787 130.507 26.883 130.458 27.0353C127.303 28.6351 127.241 31.8698 127.604 33.2873C126.024 33.6613 125.12 33.3521 124.865 33.1508C124.699 30.7181 125.379 29.5971 126.358 28.2754C127.264 27.0536 128.63 26.5895 130.151 26.5808Z" fill="#D4352B"/>
<path d="M127.6 33.2851C126.666 29.4882 129.089 27.6493 130.454 27.0332L130.47 29.7705C130.239 31.9618 128.461 33.0266 127.6 33.2851Z" fill="#EB4C44"/>
<path d="M124.864 33.149C123.152 31.5771 123.169 29.3565 123.311 27.3785C124.531 27.9799 124.988 28.1294 126.509 28.1207C125.058 29.7107 124.808 32.1354 124.864 33.149Z" fill="#BD2823"/>
<path d="M124.866 33.1509C121.696 32.0739 121.947 28.3007 122.099 25.7143C122.099 25.7143 122.24 26.1698 122.547 26.6243C122.854 27.0788 123.312 27.3804 123.312 27.3804C123.18 31.1833 124.253 32.546 124.866 33.1509Z" fill="#A1191B"/>
<path d="M127.641 45.9783C127.403 46.8313 127.953 47.2946 128.257 47.3436C131.045 46.3364 132.041 44.1889 131.273 42.8245L127.641 45.9783Z" fill="#A1C556"/>
<path d="M126.731 46.7408L127.639 45.9752C127.521 46.5843 128.001 47.1392 128.256 47.3405C126.918 47.4698 126.682 46.9946 126.731 46.7408Z" fill="#8CA93D"/>
<path d="M131.272 42.8236L126.883 46.7418L126.72 44.7656C128.894 41.9548 130.66 42.2694 131.272 42.8236Z" fill="#44923C"/>
<path d="M125.569 45.151C125.757 45.7956 125.344 46.1516 125.114 46.1913C122.992 45.4519 122.218 43.8325 122.788 42.7914L125.569 45.151Z" fill="#A1C556"/>
<path d="M126.266 45.725L125.571 45.1524C125.666 45.6131 125.307 46.038 125.116 46.1928C126.131 46.2793 126.306 45.917 126.266 45.725Z" fill="#8CA93D"/>
<path d="M122.789 42.7919L126.149 45.7244L126.256 44.2248C124.584 42.1126 123.247 42.3665 122.789 42.7919Z" fill="#44923C"/>
<rect x="125.934" y="40.0566" width="0.912515" height="9.42932" rx="0.456257" transform="rotate(-0.326969 125.934 40.0566)" fill="#297925"/>
<path d="M127.329 39.3472C126.843 39.4414 126.539 39.4586 126.235 39.4601C126.117 40.0691 126.595 40.4058 126.849 40.5058C127.456 40.1373 127.432 39.6 127.329 39.3472Z" fill="#54AE4E"/>
<path d="M125.322 39.3438C125.627 39.4484 126.033 39.4612 126.235 39.4601C126.117 40.0691 126.596 40.4061 126.85 40.506C125.758 40.9989 125.376 39.9518 125.322 39.3438Z" fill="#44923C"/>
<path d="M125.725 30.0203C128.645 30.0036 129.892 31.7202 130.15 32.5805C127.961 32.7147 126.81 33.6642 126.508 34.1222C123.619 34.1387 122.852 33.0784 122.393 32.4727C122.133 32.1301 121.778 31.4116 122.687 30.7981C123.415 30.3072 125.015 30.075 125.725 30.0203Z" fill="#861115"/>
<path d="M126.509 34.1217C123.949 33.2847 124.111 31.3471 124.511 30.483C126.948 30.9558 127.666 32.4929 127.721 33.2023C127.235 33.3267 126.711 33.8671 126.509 34.1217Z" fill="#790E11"/>
<path d="M123.599 30.7931C123.901 30.3346 124.408 30.3828 124.662 30.4828C123.58 32.679 125.442 33.8243 126.508 34.1224C125.049 34.2524 123.768 33.6817 123.31 33.3802L123.303 32.1635C123.299 31.4031 123.298 31.2513 123.599 30.7931Z" fill="#A1191B"/>
<path d="M130.151 32.5808C130.516 32.5787 130.507 32.883 130.458 33.0353C127.303 34.6351 127.241 37.8698 127.604 39.2873C126.024 39.6613 125.12 39.3521 124.865 39.1508C124.699 36.7181 125.379 35.5971 126.358 34.2754C127.264 33.0536 128.63 32.5895 130.151 32.5808Z" fill="#D4352B"/>
<path d="M127.6 39.2851C126.666 35.4882 129.089 33.6493 130.454 33.0332L130.47 35.7705C130.239 37.9618 128.461 39.0266 127.6 39.2851Z" fill="#EB4C44"/>
<path d="M124.864 39.149C123.152 37.5771 123.169 35.3565 123.311 33.3785C124.531 33.9799 124.988 34.1294 126.509 34.1207C125.058 35.7107 124.808 38.1354 124.864 39.149Z" fill="#BD2823"/>
<path d="M124.866 39.1509C121.696 38.0739 121.947 34.3007 122.099 31.7143C122.099 31.7143 122.24 32.1698 122.547 32.6243C122.854 33.0788 123.312 33.3804 123.312 33.3804C123.18 37.1833 124.253 38.546 124.866 39.1509Z" fill="#A1191B"/>
<path d="M120.342 51.0644C116.438 49.4749 113.207 46.5813 111.199 42.8767C109.73 40.1668 108.983 37.1457 109 34.0996H113.575L120.777 40.4455C122.459 42.1289 124.742 43.0754 127.124 43.0768H127.134C129.514 43.0754 131.797 42.1289 133.48 40.4455L140.766 34.0996H145.424C145.445 37.6829 144.407 41.2076 142.419 44.2219C140.1 47.74 136.632 50.345 132.606 51.5928C128.58 52.8405 124.246 52.6538 120.342 51.0644Z" fill="#FDDD0A"/>
</svg>
